<?xml version="1.0" encoding="UTF-8"?>
<svg id="Layer_1" xmlns="http://www.w3.org/2000/svg" xmlns:xlink="http://www.w3.org/1999/xlink" version="1.1" viewBox="0 0 500 500">
  <!-- Generator: Adobe Illustrator 30.1.0, SVG Export Plug-In . SVG Version: 2.1.1 Build 136)  -->
  <defs>
    <style>
      .st0 {
        fill: none;
      }

      .st1, .st2 {
        stroke: red;
      }

      .st1, .st2, .st3, .st4 {
        stroke-miterlimit: 426.67;
      }

      .st1, .st3 {
        stroke-width: 64px;
      }

      .st2 {
        stroke-width: 42.67px;
      }

      .st5 {
        clip-path: url(#clippath-1);
      }

      .st6 {
        clip-path: url(#clippath-2);
      }

      .st3, .st4 {
        stroke: #fff;
      }

      .st7 {
        fill: #fff;
      }

      .st4 {
        stroke-width: 106.67px;
      }

      .st8 {
        fill: #00008b;
      }

      .st9 {
        clip-path: url(#clippath);
      }
    </style>
    <clipPath id="clippath">
      <circle class="st0" cx="250" cy="250" r="250"/>
    </clipPath>
    <clipPath id="clippath-1">
      <rect class="st0" x="-81.22" y="0" width="502.37" height="251.18"/>
    </clipPath>
    <clipPath id="clippath-2">
      <path class="st0" d="M-81.22,0v125.59h502.37v125.59L-81.22,0ZM421.15,0h-251.18v251.18H-81.22L421.15,0Z"/>
    </clipPath>
  </defs>
  <g class="st9">
    <g>
      <g>
        <rect class="st8" x="-81.22" y="0" width="1004.73" height="502.37"/>
        <g class="st5">
          <path class="st3" d="M-81.22,0l502.37,251.18M421.15,0L-81.22,251.18"/>
        </g>
        <g class="st6">
          <path class="st2" d="M-81.22,0l502.37,251.18M421.15,0L-81.22,251.18"/>
        </g>
        <path class="st4" d="M169.97,0v251.18M-81.22,125.59h502.37"/>
        <path class="st1" d="M169.97,0v251.18M-81.22,125.59h502.37"/>
      </g>
      <g>
        <g id="Comwlth">
          <path id="Star7" class="st7" d="M169.97,301.42l14.53,45.18,44.38-16.81-26.26,39.53,40.81,24.22-47.28,4.11,6.51,47.01-32.7-34.4-32.7,34.4,6.51-47.01-47.28-4.11,40.81-24.22-26.26-39.53,44.38,16.81,14.53-45.18Z"/>
        </g>
        <g id="_αCrucis" data-name="αCrucis">
          <path id="Star71" data-name="Star7" class="st7" d="M672.33,382.75l6.92,21.51,21.14-8-12.51,18.82,19.44,11.53-22.51,1.96,3.1,22.39-15.57-16.38-15.57,16.38,3.1-22.39-22.51-1.96,19.44-11.53-12.51-18.82,21.14,8,6.92-21.51Z"/>
        </g>
        <g id="_βCrucis" data-name="βCrucis">
          <path id="Star72" data-name="Star7" class="st7" d="M546.74,183.9l6.92,21.51,21.14-8-12.51,18.82,19.44,11.53-22.51,1.96,3.1,22.39-15.57-16.38-15.57,16.38,3.1-22.39-22.51-1.96,19.44-11.53-12.51-18.82,21.14,8,6.92-21.51Z"/>
        </g>
        <g id="_γCrucis" data-name="γCrucis">
          <path id="Star73" data-name="Star7" class="st7" d="M672.33,47.84l6.92,21.51,21.14-8-12.51,18.82,19.44,11.53-22.51,1.96,3.1,22.39-15.57-16.38-15.57,16.38,3.1-22.39-22.51-1.96,19.44-11.53-12.51-18.82,21.14,8,6.92-21.51Z"/>
        </g>
        <g id="_δCrucis" data-name="δCrucis">
          <path id="Star74" data-name="Star7" class="st7" d="M783.97,150.41l6.92,21.51,21.14-8-12.51,18.82,19.44,11.53-22.51,1.96,3.1,22.39-15.57-16.38-15.57,16.38,3.1-22.39-22.51-1.96,19.44-11.53-12.51-18.82,21.14,8,6.92-21.51Z"/>
        </g>
        <g id="_εCrucis" data-name="εCrucis">
          <path id="Star5" class="st7" d="M722.57,251.18l5.47,13.41,14.44,1.06-11.06,9.34,3.46,14.06-12.3-7.63-12.3,7.63,3.46-14.06-11.06-9.34,14.44-1.06,5.47-13.41Z"/>
        </g>
      </g>
    </g>
  </g>
</svg>