<?xml version="1.0" encoding="UTF-8"?>
<svg id="Layer_1" xmlns="http://www.w3.org/2000/svg" xmlns:xlink="http://www.w3.org/1999/xlink" version="1.1" viewBox="0 0 500 500">
  <!-- Generator: Adobe Illustrator 30.1.0, SVG Export Plug-In . SVG Version: 2.1.1 Build 136)  -->
  <defs>
    <style>
      .st0 {
        fill: none;
      }

      .st1 {
        fill: #302681;
      }

      .st2, .st3 {
        fill: #009440;
      }

      .st4 {
        fill: #ffcb00;
      }

      .st5 {
        clip-path: url(#clippath-1);
      }

      .st6 {
        clip-path: url(#clippath-2);
      }

      .st7 {
        fill: #fff;
      }

      .st3 {
        fill-rule: evenodd;
      }

      .st8 {
        clip-path: url(#clippath);
      }
    </style>
    <clipPath id="clippath">
      <circle class="st0" cx="250" cy="250" r="250"/>
    </clipPath>
    <clipPath id="clippath-1">
      <circle class="st0" cx="250" cy="250" r="125.12"/>
    </clipPath>
    <clipPath id="clippath-2">
      <path class="st0" d="M288.81,233.1l4.75-10.93,9.84,4.28-4.75,10.93-9.84-4.28ZM296.92,227.9l-.81,1.87,4.92,2.14.81-1.87-4.92-2.14Z"/>
    </clipPath>
  </defs>
  <g class="st8">
    <g>
      <path class="st2" d="M-107.5-.25h715v500.5H-107.5V-.25Z"/>
      <path class="st4" d="M-46.73,250l296.73,189.48,296.72-189.48L250,60.52-46.73,250Z"/>
      <circle class="st1" cx="250" cy="250" r="125.12"/>
      <g class="st5">
        <path class="st7" d="M-125.38,500.25c0-167.83,136.05-303.88,303.88-303.88s303.88,136.05,303.88,303.88h-17.88c0-157.95-128.05-286-286-286-157.95,0-286,128.05-286,286h-17.88Z"/>
      </g>
      <g>
        <path id="O" class="st3" d="M143.28,213.42c2.94-.36,5-3.3,4.6-6.57s-3.11-5.62-6.05-5.26-5,3.3-4.6,6.57,3.11,5.62,6.05,5.26M143.01,211.23c1.73-.21,2.92-2.05,2.67-4.1s-1.86-3.55-3.58-3.33-2.92,2.05-2.67,4.1,1.86,3.55,3.58,3.33"/>
        <g id="R">
          <path id="P" class="st3" d="M152.99,212.35l2.21-.15-.31-4.42,4.76-.33c2.06-.14,3.62-1.93,3.47-4s-1.93-3.62-4-3.47l-6.79.48.66,11.9ZM154.74,205.57l4.59-.32c.84-.06,1.48-.79,1.42-1.64s-.79-1.48-1.64-1.42l-4.59.32.21,3.06Z"/>
          <path class="st2" d="M163.1,211.64c-.12-1.7-.38-5.43-2.93-5.26l-3.23.23c3.74-.26,4,3.47,4.12,5.17"/>
        </g>
        <path id="D" class="st3" d="M168.09,211.41l5.62-.1c2.82-.05,5.07-2.38,5.02-5.2l-.03-1.7c-.05-2.82-2.38-5.07-5.2-5.02l-5.62.1.21,11.91ZM170.27,209.16l3.23-.06c1.79-.03,3.21-1.5,3.18-3.29l-.02-1.02c-.03-1.79-1.5-3.21-3.29-3.18l-3.23.06.13,7.49Z"/>
        <path id="E" class="st2" d="M183.23,211.26l10.72.37.08-2.21-8.68-.3.11-3.06,6.81.24.07-2.04-6.81-.24.08-2.38,8.17.29.08-2.21-10.21-.36-.42,11.91Z"/>
        <path id="M" class="st2" d="M198.34,211.9l2.04.18.71-8.14,1.66,8.35,1.87.16,3.09-7.93-.71,8.14,2.04.18,1.04-11.87-2.97-.26-3.09,7.93-1.66-8.35-2.97-.26-1.04,11.87Z"/>
        <path id="e" class="st2" d="M223.03,214.69l8.81,1.51.35-2.01-6.8-1.17.46-2.68,5.54.95.35-2.01-5.54-.95.32-1.85,6.59,1.13.35-2.01-8.6-1.48-1.82,10.57Z"/>
        <path id="P1" data-name="P" class="st3" d="M245.66,219.13l2.14.55,1.11-4.29,4.61,1.19c2,.52,4.05-.69,4.56-2.69s-.69-4.05-2.69-4.56l-6.59-1.7-3.15,11.49ZM249.47,213.26l4.45,1.15c.82.21,1.66-.28,1.87-1.1s-.28-1.66-1.1-1.87l-4.45-1.15-.77,2.97Z"/>
        <g id="R1" data-name="R">
          <path id="P2" data-name="P" class="st3" d="M260.28,223.03l2.11.67,1.33-4.22,4.55,1.43c1.97.62,4.08-.47,4.7-2.45s-.47-4.08-2.45-4.7l-6.49-2.05-3.75,11.31ZM264.39,217.37l4.38,1.38c.81.25,1.67-.19,1.92-1s-.19-1.67-1-1.92l-4.38-1.38-.92,2.92Z"/>
          <path class="st2" d="M269.94,226.08c.51-1.62,1.64-5.2-.8-5.96l-3.08-.97c3.57,1.13,2.45,4.7,1.93,6.32"/>
        </g>
        <path id="O1" data-name="O" class="st3" d="M279.7,229.57c2.77,1.04,5.96-.62,7.11-3.7s-.16-6.42-2.94-7.46-5.96.62-7.11,3.7.16,6.42,2.94,7.46M280.48,227.5c1.63.61,3.54-.47,4.26-2.41s0-4-1.64-4.61-3.54.47-4.26,2.41,0,4,1.64,4.61"/>
        <g id="G">
          <g class="st6">
            <path id="O2" data-name="O" class="st3" d="M293.73,235.24c2.72,1.18,5.98-.31,7.29-3.33s.17-6.42-2.54-7.6-5.98.31-7.29,3.33-.17,6.42,2.54,7.6M294.61,233.21c1.6.69,3.56-.28,4.38-2.18s.2-4-1.39-4.69-3.56.28-4.38,2.18-.2,4,1.39,4.69"/>
          </g>
          <path class="st2" d="M296.89,230.11l4.14,1.8-.68,1.56-4.14-1.8.68-1.56Z"/>
          <path class="st2" d="M299.46,231.23l1.56.68-2.38,5.46-1.56-.68,2.38-5.46Z"/>
        </g>
        <g id="R2" data-name="R">
          <path id="P3" data-name="P" class="st3" d="M302.64,239.24l1.98.99,1.97-3.96,4.27,2.13c1.85.92,4.1.17,5.02-1.68s.17-4.1-1.68-5.02l-6.09-3.04-5.47,10.59ZM307.59,234.29l4.11,2.05c.76.38,1.68.07,2.05-.69s.07-1.68-.69-2.05l-4.11-2.05-1.37,2.74Z"/>
          <path class="st2" d="M311.71,243.76c.76-1.52,2.43-4.88.15-6.01l-2.89-1.44c3.35,1.67,1.68,5.02.92,6.55"/>
        </g>
        <path id="E1" data-name="E" class="st2" d="M316.13,246.09l9.33,5.28,1.09-1.93-7.56-4.28,1.51-2.67,5.93,3.35,1.01-1.78-5.93-3.35,1.17-2.07,7.11,4.02,1.09-1.93-8.89-5.03-5.87,10.37Z"/>
        <path id="S" class="st2" d="M333.52,251.93c-.64,1.01,0,2.12,1.44,3.04s2.41.88,2.83.24c1.3-2.05-6.23-5.03-3.91-8.6,2-3.06,5.43-.68,6.72.14s3.37,2.95,1.75,5.41l-2.19-1.39c.69-1.08-.07-2.11-1.22-2.84s-2.02-1.03-2.68,0c-1.11,1.66,6.27,4.8,4.01,8.36-1.67,2.62-4.57,1.48-6.51.24-1.65-1.05-4.12-3.53-2.51-6.04l2.26,1.44Z"/>
        <path id="S1" data-name="S" class="st2" d="M346.3,260.38c-.69.97-.1,2.12,1.28,3.11s2.36,1.01,2.81.38c1.41-1.97-5.96-5.35-3.45-8.79,2.16-2.96,5.46-.39,6.7.5s3.21,3.12,1.47,5.49l-2.11-1.51c.74-1.04.04-2.11-1.07-2.9s-1.96-1.14-2.68-.13c-1.2,1.6,6.01,5.13,3.57,8.56-1.8,2.53-4.64,1.23-6.52-.1-1.59-1.14-3.93-3.74-2.19-6.16l2.18,1.56Z"/>
        <path id="O3" data-name="O" class="st3" d="M358.39,274.09c2.32,1.84,5.86,1.25,7.91-1.32s1.83-6.16-.49-8-5.86-1.25-7.91,1.32-1.83,6.16.49,8M359.77,272.36c1.36,1.08,3.51.65,4.8-.97s1.23-3.81-.13-4.89-3.51-.65-4.8.97-1.23,3.81.13,4.89"/>
      </g>
      <g id="a">
        <g id="s">
          <g id="c">
            <path id="t" class="st7" d="M147.86,222.17l-1.66,5.1,2.55.83"/>
            <path id="t1" data-name="t" class="st7" d="M147.86,222.17l1.66,5.1-2.55.83"/>
          </g>
          <g id="c1" data-name="c">
            <path id="t2" data-name="t" class="st7" d="M152.96,225.87h-5.36s0,2.68,0,2.68"/>
            <path id="t3" data-name="t" class="st7" d="M152.96,225.87l-4.34,3.15-1.58-2.17"/>
          </g>
          <g id="c2" data-name="c">
            <path id="t4" data-name="t" class="st7" d="M142.76,225.87l4.34,3.15,1.58-2.17"/>
            <path id="t5" data-name="t" class="st7" d="M142.76,225.87h5.36s0,2.68,0,2.68"/>
          </g>
          <g id="c3" data-name="c">
            <path id="t6" data-name="t" class="st7" d="M151.01,231.87l-1.66-5.1-2.55.83"/>
            <path id="t7" data-name="t" class="st7" d="M151.01,231.87l-4.34-3.15,1.58-2.17"/>
          </g>
          <g id="c4" data-name="c">
            <path id="t8" data-name="t" class="st7" d="M144.71,231.87l4.34-3.15-1.58-2.17"/>
            <path id="t9" data-name="t" class="st7" d="M144.71,231.87l1.66-5.1,2.55.83"/>
          </g>
        </g>
      </g>
      <g id="a1" data-name="a">
        <g id="s1" data-name="s">
          <g id="c5" data-name="c">
            <path id="t10" data-name="t" class="st7" d="M158.92,274.77l-1.66,5.1,2.55.83"/>
            <path id="t11" data-name="t" class="st7" d="M158.92,274.77l1.66,5.1-2.55.83"/>
          </g>
          <g id="c6" data-name="c">
            <path id="t12" data-name="t" class="st7" d="M164.02,278.48h-5.36s0,2.68,0,2.68"/>
            <path id="t13" data-name="t" class="st7" d="M164.02,278.48l-4.34,3.15-1.58-2.17"/>
          </g>
          <g id="c7" data-name="c">
            <path id="t14" data-name="t" class="st7" d="M153.82,278.48l4.34,3.15,1.58-2.17"/>
            <path id="t15" data-name="t" class="st7" d="M153.82,278.48h5.36s0,2.68,0,2.68"/>
          </g>
          <g id="c8" data-name="c">
            <path id="t16" data-name="t" class="st7" d="M162.07,284.47l-1.66-5.1-2.55.83"/>
            <path id="t17" data-name="t" class="st7" d="M162.07,284.47l-4.34-3.15,1.58-2.17"/>
          </g>
          <g id="c9" data-name="c">
            <path id="t18" data-name="t" class="st7" d="M155.77,284.47l4.34-3.15-1.58-2.17"/>
            <path id="t19" data-name="t" class="st7" d="M155.77,284.47l1.66-5.1,2.55.83"/>
          </g>
        </g>
      </g>
      <g id="b">
        <g id="s2" data-name="s">
          <g id="c10" data-name="c">
            <path id="t20" data-name="t" class="st7" d="M143.6,286.9l-1.38,4.25,2.13.69"/>
            <path id="t21" data-name="t" class="st7" d="M143.6,286.9l1.38,4.25-2.13.69"/>
          </g>
          <g id="c11" data-name="c">
            <path id="t22" data-name="t" class="st7" d="M147.85,289.99h-4.47v2.23"/>
            <path id="t23" data-name="t" class="st7" d="M147.85,289.99l-3.62,2.63-1.31-1.81"/>
          </g>
          <g id="c12" data-name="c">
            <path id="t24" data-name="t" class="st7" d="M139.35,289.99l3.62,2.63,1.31-1.81"/>
            <path id="t25" data-name="t" class="st7" d="M139.35,289.99h4.47v2.23"/>
          </g>
          <g id="c13" data-name="c">
            <path id="t26" data-name="t" class="st7" d="M146.23,294.98l-1.38-4.25-2.13.69"/>
            <path id="t27" data-name="t" class="st7" d="M146.23,294.98l-3.62-2.63,1.31-1.81"/>
          </g>
          <g id="c14" data-name="c">
            <path id="t28" data-name="t" class="st7" d="M140.97,294.98l3.62-2.63-1.31-1.81"/>
            <path id="t29" data-name="t" class="st7" d="M140.97,294.98l1.38-4.25,2.13.69"/>
          </g>
        </g>
      </g>
      <g id="h">
        <g id="s3" data-name="s">
          <g id="c15" data-name="c">
            <path id="t30" data-name="t" class="st7" d="M171.18,269.92l-.79,2.43,1.21.39"/>
            <path id="t31" data-name="t" class="st7" d="M171.18,269.92l.79,2.43-1.21.39"/>
          </g>
          <g id="c16" data-name="c">
            <path id="t32" data-name="t" class="st7" d="M173.61,271.68h-2.55s0,1.28,0,1.28"/>
            <path id="t33" data-name="t" class="st7" d="M173.61,271.68l-2.07,1.5-.75-1.03"/>
          </g>
          <g id="c17" data-name="c">
            <path id="t34" data-name="t" class="st7" d="M168.75,271.68l2.07,1.5.75-1.03"/>
            <path id="t35" data-name="t" class="st7" d="M168.75,271.68h2.55s0,1.28,0,1.28"/>
          </g>
          <g id="c18" data-name="c">
            <path id="t36" data-name="t" class="st7" d="M172.68,274.54l-.79-2.43-1.21.39"/>
            <path id="t37" data-name="t" class="st7" d="M172.68,274.54l-2.07-1.5.75-1.03"/>
          </g>
          <g id="c19" data-name="c">
            <path id="t38" data-name="t" class="st7" d="M169.68,274.54l2.07-1.5-.75-1.03"/>
            <path id="t39" data-name="t" class="st7" d="M169.68,274.54l.79-2.43,1.21.39"/>
          </g>
        </g>
      </g>
      <g id="b1" data-name="b">
        <g id="s4" data-name="s">
          <g id="c20" data-name="c">
            <path id="t40" data-name="t" class="st7" d="M184.97,288.09l-1.38,4.25,2.13.69"/>
            <path id="t41" data-name="t" class="st7" d="M184.97,288.09l1.38,4.25-2.13.69"/>
          </g>
          <g id="c21" data-name="c">
            <path id="t42" data-name="t" class="st7" d="M189.22,291.18h-4.47v2.23"/>
            <path id="t43" data-name="t" class="st7" d="M189.22,291.18l-3.62,2.63-1.31-1.81"/>
          </g>
          <g id="c22" data-name="c">
            <path id="t44" data-name="t" class="st7" d="M180.72,291.18l3.62,2.63,1.31-1.81"/>
            <path id="t45" data-name="t" class="st7" d="M180.72,291.18h4.47v2.23"/>
          </g>
          <g id="c23" data-name="c">
            <path id="t46" data-name="t" class="st7" d="M187.6,296.17l-1.38-4.25-2.13.69"/>
            <path id="t47" data-name="t" class="st7" d="M187.6,296.17l-3.62-2.63,1.31-1.81"/>
          </g>
          <g id="c24" data-name="c">
            <path id="t48" data-name="t" class="st7" d="M182.34,296.17l3.62-2.63-1.31-1.81"/>
            <path id="t49" data-name="t" class="st7" d="M182.34,296.17l1.38-4.25,2.13.69"/>
          </g>
        </g>
      </g>
      <g id="f">
        <g id="s5" data-name="s">
          <g id="c25" data-name="c">
            <path id="t50" data-name="t" class="st7" d="M181.22,301.41l-1.1,3.4,1.7.55"/>
            <path id="t51" data-name="t" class="st7" d="M181.22,301.41l1.1,3.4-1.7.55"/>
          </g>
          <g id="c26" data-name="c">
            <path id="t52" data-name="t" class="st7" d="M184.62,303.88h-3.58s0,1.79,0,1.79"/>
            <path id="t53" data-name="t" class="st7" d="M184.62,303.88l-2.89,2.1-1.05-1.45"/>
          </g>
          <g id="c27" data-name="c">
            <path id="t54" data-name="t" class="st7" d="M177.82,303.88l2.89,2.1,1.05-1.45"/>
            <path id="t55" data-name="t" class="st7" d="M177.82,303.88h3.58s0,1.79,0,1.79"/>
          </g>
          <g id="c28" data-name="c">
            <path id="t56" data-name="t" class="st7" d="M183.33,307.88l-1.1-3.4-1.7.55"/>
            <path id="t57" data-name="t" class="st7" d="M183.33,307.88l-2.89-2.1,1.05-1.45"/>
          </g>
          <g id="c29" data-name="c">
            <path id="t58" data-name="t" class="st7" d="M179.12,307.88l2.89-2.1-1.05-1.45"/>
            <path id="t59" data-name="t" class="st7" d="M179.12,307.88l1.1-3.4,1.7.55"/>
          </g>
        </g>
      </g>
      <g id="a2" data-name="a">
        <g id="s6" data-name="s">
          <g id="c30" data-name="c">
            <path id="t60" data-name="t" class="st7" d="M288.81,205.82l-1.66,5.1,2.55.83"/>
            <path id="t61" data-name="t" class="st7" d="M288.81,205.82l1.66,5.1-2.55.83"/>
          </g>
          <g id="c31" data-name="c">
            <path id="t62" data-name="t" class="st7" d="M293.91,209.53h-5.36s0,2.68,0,2.68"/>
            <path id="t63" data-name="t" class="st7" d="M293.91,209.53l-4.34,3.15-1.58-2.17"/>
          </g>
          <g id="c32" data-name="c">
            <path id="t64" data-name="t" class="st7" d="M283.71,209.53l4.34,3.15,1.58-2.17"/>
            <path id="t65" data-name="t" class="st7" d="M283.71,209.53h5.36s0,2.68,0,2.68"/>
          </g>
          <g id="c33" data-name="c">
            <path id="t66" data-name="t" class="st7" d="M291.97,215.52l-1.66-5.1-2.55.83"/>
            <path id="t67" data-name="t" class="st7" d="M291.97,215.52l-4.34-3.15,1.58-2.17"/>
          </g>
          <g id="c34" data-name="c">
            <path id="t68" data-name="t" class="st7" d="M285.66,215.52l4.34-3.15-1.58-2.17"/>
            <path id="t69" data-name="t" class="st7" d="M285.66,215.52l1.66-5.1,2.55.83"/>
          </g>
        </g>
      </g>
      <g id="a3" data-name="a">
        <g id="s7" data-name="s">
          <g id="c35" data-name="c">
            <path id="t70" data-name="t" class="st7" d="M337.67,288.56l-1.66,5.1,2.55.83"/>
            <path id="t71" data-name="t" class="st7" d="M337.67,288.56l1.66,5.1-2.55.83"/>
          </g>
          <g id="c36" data-name="c">
            <path id="t72" data-name="t" class="st7" d="M342.77,292.26h-5.36s0,2.68,0,2.68"/>
            <path id="t73" data-name="t" class="st7" d="M342.77,292.26l-4.34,3.15-1.58-2.17"/>
          </g>
          <g id="c37" data-name="c">
            <path id="t74" data-name="t" class="st7" d="M332.57,292.26l4.34,3.15,1.58-2.17"/>
            <path id="t75" data-name="t" class="st7" d="M332.57,292.26h5.36s0,2.68,0,2.68"/>
          </g>
          <g id="c38" data-name="c">
            <path id="t76" data-name="t" class="st7" d="M340.82,298.26l-1.66-5.1-2.55.83"/>
            <path id="t77" data-name="t" class="st7" d="M340.82,298.26l-4.34-3.15,1.58-2.17"/>
          </g>
          <g id="c39" data-name="c">
            <path id="t78" data-name="t" class="st7" d="M334.52,298.26l4.34-3.15-1.58-2.17"/>
            <path id="t79" data-name="t" class="st7" d="M334.52,298.26l1.66-5.1,2.55.83"/>
          </g>
        </g>
      </g>
      <g id="f1" data-name="f">
        <g id="s8" data-name="s">
          <g id="c40" data-name="c">
            <path id="t80" data-name="t" class="st7" d="M355.04,291.54l-1.1,3.4,1.7.55"/>
            <path id="t81" data-name="t" class="st7" d="M355.04,291.54l1.1,3.4-1.7.55"/>
          </g>
          <g id="c41" data-name="c">
            <path id="t82" data-name="t" class="st7" d="M358.44,294.01h-3.58s0,1.79,0,1.79"/>
            <path id="t83" data-name="t" class="st7" d="M358.44,294.01l-2.89,2.1-1.05-1.45"/>
          </g>
          <g id="c42" data-name="c">
            <path id="t84" data-name="t" class="st7" d="M351.64,294.01l2.89,2.1,1.05-1.45"/>
            <path id="t85" data-name="t" class="st7" d="M351.64,294.01h3.58s0,1.79,0,1.79"/>
          </g>
          <g id="c43" data-name="c">
            <path id="t86" data-name="t" class="st7" d="M357.14,298.01l-1.1-3.4-1.7.55"/>
            <path id="t87" data-name="t" class="st7" d="M357.14,298.01l-2.89-2.1,1.05-1.45"/>
          </g>
          <g id="c44" data-name="c">
            <path id="t88" data-name="t" class="st7" d="M352.94,298.01l2.89-2.1-1.05-1.45"/>
            <path id="t89" data-name="t" class="st7" d="M352.94,298.01l1.1-3.4,1.7.55"/>
          </g>
        </g>
      </g>
      <g id="b2" data-name="b">
        <g id="s9" data-name="s">
          <g id="c45" data-name="c">
            <path id="t90" data-name="t" class="st7" d="M342.78,300.52l-1.38,4.25,2.13.69"/>
            <path id="t91" data-name="t" class="st7" d="M342.78,300.52l1.38,4.25-2.13.69"/>
          </g>
          <g id="c46" data-name="c">
            <path id="t92" data-name="t" class="st7" d="M347.03,303.61h-4.47v2.23"/>
            <path id="t93" data-name="t" class="st7" d="M347.03,303.61l-3.62,2.63-1.31-1.81"/>
          </g>
          <g id="c47" data-name="c">
            <path id="t94" data-name="t" class="st7" d="M338.53,303.61l3.62,2.63,1.31-1.81"/>
            <path id="t95" data-name="t" class="st7" d="M338.53,303.61h4.47v2.23"/>
          </g>
          <g id="c48" data-name="c">
            <path id="t96" data-name="t" class="st7" d="M345.41,308.6l-1.38-4.25-2.13.69"/>
            <path id="t97" data-name="t" class="st7" d="M345.41,308.6l-3.62-2.63,1.31-1.81"/>
          </g>
          <g id="c49" data-name="c">
            <path id="t98" data-name="t" class="st7" d="M340.15,308.6l3.62-2.63-1.31-1.81"/>
            <path id="t99" data-name="t" class="st7" d="M340.15,308.6l1.38-4.25,2.13.69"/>
          </g>
        </g>
      </g>
      <g id="b3" data-name="b">
        <g id="s10" data-name="s">
          <g id="c50" data-name="c">
            <path id="t100" data-name="t" class="st7" d="M312.65,326.73l-1.38,4.25,2.13.69"/>
            <path id="t101" data-name="t" class="st7" d="M312.65,326.73l1.38,4.25-2.13.69"/>
          </g>
          <g id="c51" data-name="c">
            <path id="t102" data-name="t" class="st7" d="M316.9,329.82h-4.47v2.23"/>
            <path id="t103" data-name="t" class="st7" d="M316.9,329.82l-3.62,2.63-1.31-1.81"/>
          </g>
          <g id="c52" data-name="c">
            <path id="t104" data-name="t" class="st7" d="M308.4,329.82l3.62,2.63,1.31-1.81"/>
            <path id="t105" data-name="t" class="st7" d="M308.4,329.82h4.47v2.23"/>
          </g>
          <g id="c53" data-name="c">
            <path id="t106" data-name="t" class="st7" d="M315.27,334.82l-1.38-4.25-2.13.69"/>
            <path id="t107" data-name="t" class="st7" d="M315.27,334.82l-3.62-2.63,1.31-1.81"/>
          </g>
          <g id="c54" data-name="c">
            <path id="t108" data-name="t" class="st7" d="M310.02,334.82l3.62-2.63-1.31-1.81"/>
            <path id="t109" data-name="t" class="st7" d="M310.02,334.82l1.38-4.25,2.13.69"/>
          </g>
        </g>
      </g>
      <g id="f2" data-name="f">
        <g id="s11" data-name="s">
          <g id="c55" data-name="c">
            <path id="t110" data-name="t" class="st7" d="M312.48,340.23l-1.1,3.4,1.7.55"/>
            <path id="t111" data-name="t" class="st7" d="M312.48,340.23l1.1,3.4-1.7.55"/>
          </g>
          <g id="c56" data-name="c">
            <path id="t112" data-name="t" class="st7" d="M315.88,342.7h-3.58s0,1.79,0,1.79"/>
            <path id="t113" data-name="t" class="st7" d="M315.88,342.7l-2.89,2.1-1.05-1.45"/>
          </g>
          <g id="c57" data-name="c">
            <path id="t114" data-name="t" class="st7" d="M309.08,342.7l2.89,2.1,1.05-1.45"/>
            <path id="t115" data-name="t" class="st7" d="M309.08,342.7h3.58s0,1.79,0,1.79"/>
          </g>
          <g id="c58" data-name="c">
            <path id="t116" data-name="t" class="st7" d="M314.58,346.69l-1.1-3.4-1.7.55"/>
            <path id="t117" data-name="t" class="st7" d="M314.58,346.69l-2.89-2.1,1.05-1.45"/>
          </g>
          <g id="c59" data-name="c">
            <path id="t118" data-name="t" class="st7" d="M310.38,346.69l2.89-2.1-1.05-1.45"/>
            <path id="t119" data-name="t" class="st7" d="M310.38,346.69l1.1-3.4,1.7.55"/>
          </g>
        </g>
      </g>
      <g id="f3" data-name="f">
        <g id="s12" data-name="s">
          <g id="c60" data-name="c">
            <path id="t120" data-name="t" class="st7" d="M325.08,317.75l-1.1,3.4,1.7.55"/>
            <path id="t121" data-name="t" class="st7" d="M325.07,317.75l1.1,3.4-1.7.55"/>
          </g>
          <g id="c61" data-name="c">
            <path id="t122" data-name="t" class="st7" d="M328.48,320.23h-3.58s0,1.79,0,1.79"/>
            <path id="t123" data-name="t" class="st7" d="M328.48,320.23l-2.89,2.1-1.05-1.45"/>
          </g>
          <g id="c62" data-name="c">
            <path id="t124" data-name="t" class="st7" d="M321.67,320.23l2.89,2.1,1.05-1.45"/>
            <path id="t125" data-name="t" class="st7" d="M321.67,320.23h3.58s0,1.79,0,1.79"/>
          </g>
          <g id="c63" data-name="c">
            <path id="t126" data-name="t" class="st7" d="M327.18,324.22l-1.1-3.4-1.7.55"/>
            <path id="t127" data-name="t" class="st7" d="M327.18,324.22l-2.89-2.1,1.05-1.45"/>
          </g>
          <g id="c64" data-name="c">
            <path id="t128" data-name="t" class="st7" d="M322.97,324.22l2.89-2.1-1.05-1.45"/>
            <path id="t129" data-name="t" class="st7" d="M322.97,324.22l1.1-3.4,1.7.55"/>
          </g>
        </g>
      </g>
      <g id="b4" data-name="b">
        <g id="s13" data-name="s">
          <g id="c65" data-name="c">
            <path id="t130" data-name="t" class="st7" d="M335.12,310.56l-1.38,4.25,2.13.69"/>
            <path id="t131" data-name="t" class="st7" d="M335.12,310.56l1.38,4.25-2.13.69"/>
          </g>
          <g id="c66" data-name="c">
            <path id="t132" data-name="t" class="st7" d="M339.37,313.65h-4.47v2.23"/>
            <path id="t133" data-name="t" class="st7" d="M339.37,313.65l-3.62,2.63-1.31-1.81"/>
          </g>
          <g id="c67" data-name="c">
            <path id="t134" data-name="t" class="st7" d="M330.87,313.65l3.62,2.63,1.31-1.81"/>
            <path id="t135" data-name="t" class="st7" d="M330.87,313.65h4.47v2.23"/>
          </g>
          <g id="c68" data-name="c">
            <path id="t136" data-name="t" class="st7" d="M337.75,318.65l-1.38-4.25-2.13.69"/>
            <path id="t137" data-name="t" class="st7" d="M337.75,318.65l-3.62-2.63,1.31-1.81"/>
          </g>
          <g id="c69" data-name="c">
            <path id="t138" data-name="t" class="st7" d="M332.49,318.65l3.62-2.63-1.31-1.81"/>
            <path id="t139" data-name="t" class="st7" d="M332.49,318.65l1.38-4.25,2.13.69"/>
          </g>
        </g>
      </g>
      <g id="f4" data-name="f">
        <g id="s14" data-name="s">
          <g id="c70" data-name="c">
            <path id="t140" data-name="t" class="st7" d="M312.14,315.37l-1.1,3.4,1.7.55"/>
            <path id="t141" data-name="t" class="st7" d="M312.14,315.37l1.1,3.4-1.7.55"/>
          </g>
          <g id="c71" data-name="c">
            <path id="t142" data-name="t" class="st7" d="M315.54,317.84h-3.58s0,1.79,0,1.79"/>
            <path id="t143" data-name="t" class="st7" d="M315.54,317.84l-2.89,2.1-1.05-1.45"/>
          </g>
          <g id="c72" data-name="c">
            <path id="t144" data-name="t" class="st7" d="M308.74,317.84l2.89,2.1,1.05-1.45"/>
            <path id="t145" data-name="t" class="st7" d="M308.74,317.84h3.58s0,1.79,0,1.79"/>
          </g>
          <g id="c73" data-name="c">
            <path id="t146" data-name="t" class="st7" d="M314.24,321.84l-1.1-3.4-1.7.55"/>
            <path id="t147" data-name="t" class="st7" d="M314.24,321.84l-2.89-2.1,1.05-1.45"/>
          </g>
          <g id="c74" data-name="c">
            <path id="t148" data-name="t" class="st7" d="M310.04,321.84l2.89-2.1-1.05-1.45"/>
            <path id="t149" data-name="t" class="st7" d="M310.04,321.84l1.1-3.4,1.7.55"/>
          </g>
        </g>
      </g>
      <g id="b5" data-name="b">
        <g id="s15" data-name="s">
          <g id="c75" data-name="c">
            <path id="t150" data-name="t" class="st7" d="M202.33,250.64l-1.38,4.25,2.13.69"/>
            <path id="t151" data-name="t" class="st7" d="M202.33,250.64l1.38,4.25-2.13.69"/>
          </g>
          <g id="c76" data-name="c">
            <path id="t152" data-name="t" class="st7" d="M206.58,253.73h-4.47v2.23"/>
            <path id="t153" data-name="t" class="st7" d="M206.58,253.73l-3.62,2.63-1.31-1.81"/>
          </g>
          <g id="c77" data-name="c">
            <path id="t154" data-name="t" class="st7" d="M198.08,253.73l3.62,2.63,1.31-1.81"/>
            <path id="t155" data-name="t" class="st7" d="M198.08,253.73h4.47v2.23"/>
          </g>
          <g id="c78" data-name="c">
            <path id="t156" data-name="t" class="st7" d="M204.96,258.72l-1.38-4.25-2.13.69"/>
            <path id="t157" data-name="t" class="st7" d="M204.96,258.72l-3.62-2.63,1.31-1.81"/>
          </g>
          <g id="c79" data-name="c">
            <path id="t158" data-name="t" class="st7" d="M199.71,258.72l3.62-2.63-1.31-1.81"/>
            <path id="t159" data-name="t" class="st7" d="M199.71,258.72l1.38-4.25,2.13.69"/>
          </g>
        </g>
      </g>
      <g id="f5" data-name="f">
        <g id="s16" data-name="s">
          <g id="c80" data-name="c">
            <path id="t160" data-name="t" class="st7" d="M284.05,240.13l-1.1,3.4,1.7.55"/>
            <path id="t161" data-name="t" class="st7" d="M284.05,240.13l1.1,3.4-1.7.55"/>
          </g>
          <g id="c81" data-name="c">
            <path id="t162" data-name="t" class="st7" d="M287.45,242.6h-3.58s0,1.79,0,1.79"/>
            <path id="t163" data-name="t" class="st7" d="M287.45,242.6l-2.89,2.1-1.05-1.45"/>
          </g>
          <g id="c82" data-name="c">
            <path id="t164" data-name="t" class="st7" d="M280.65,242.6l2.89,2.1,1.05-1.45"/>
            <path id="t165" data-name="t" class="st7" d="M280.65,242.6h3.58s0,1.79,0,1.79"/>
          </g>
          <g id="c83" data-name="c">
            <path id="t166" data-name="t" class="st7" d="M286.15,246.59l-1.1-3.4-1.7.55"/>
            <path id="t167" data-name="t" class="st7" d="M286.15,246.59l-2.89-2.1,1.05-1.45"/>
          </g>
          <g id="c84" data-name="c">
            <path id="t168" data-name="t" class="st7" d="M281.95,246.59l2.89-2.1-1.05-1.45"/>
            <path id="t169" data-name="t" class="st7" d="M281.95,246.59l1.1-3.4,1.7.55"/>
          </g>
        </g>
      </g>
      <g id="a4" data-name="a">
        <g id="s17" data-name="s">
          <g id="c85" data-name="c">
            <path id="t170" data-name="t" class="st7" d="M250,300.82l-1.66,5.1,2.55.83"/>
            <path id="t171" data-name="t" class="st7" d="M250,300.82l1.66,5.1-2.55.83"/>
          </g>
          <g id="c86" data-name="c">
            <path id="t172" data-name="t" class="st7" d="M255.1,304.52h-5.36s0,2.68,0,2.68"/>
            <path id="t173" data-name="t" class="st7" d="M255.1,304.52l-4.34,3.15-1.58-2.17"/>
          </g>
          <g id="c87" data-name="c">
            <path id="t174" data-name="t" class="st7" d="M244.9,304.52l4.34,3.15,1.58-2.17"/>
            <path id="t175" data-name="t" class="st7" d="M244.9,304.52h5.36s0,2.68,0,2.68"/>
          </g>
          <g id="c88" data-name="c">
            <path id="t176" data-name="t" class="st7" d="M253.15,310.52l-1.66-5.1-2.55.83"/>
            <path id="t177" data-name="t" class="st7" d="M253.15,310.52l-4.34-3.15,1.58-2.17"/>
          </g>
          <g id="c89" data-name="c">
            <path id="t178" data-name="t" class="st7" d="M246.85,310.52l4.34-3.15-1.58-2.17"/>
            <path id="t179" data-name="t" class="st7" d="M246.85,310.52l1.66-5.1,2.55.83"/>
          </g>
        </g>
      </g>
      <g id="b6" data-name="b">
        <g id="s18" data-name="s">
          <g id="c90" data-name="c">
            <path id="t180" data-name="t" class="st7" d="M264.47,276.86l-1.38,4.25,2.13.69"/>
            <path id="t181" data-name="t" class="st7" d="M264.47,276.86l1.38,4.25-2.13.69"/>
          </g>
          <g id="c91" data-name="c">
            <path id="t182" data-name="t" class="st7" d="M268.72,279.94h-4.47v2.23"/>
            <path id="t183" data-name="t" class="st7" d="M268.72,279.94l-3.62,2.63-1.31-1.81"/>
          </g>
          <g id="c92" data-name="c">
            <path id="t184" data-name="t" class="st7" d="M260.22,279.94l3.62,2.63,1.31-1.81"/>
            <path id="t185" data-name="t" class="st7" d="M260.22,279.94h4.47v2.23"/>
          </g>
          <g id="c93" data-name="c">
            <path id="t186" data-name="t" class="st7" d="M267.1,284.94l-1.38-4.25-2.13.69"/>
            <path id="t187" data-name="t" class="st7" d="M267.1,284.94l-3.62-2.63,1.31-1.81"/>
          </g>
          <g id="c94" data-name="c">
            <path id="t188" data-name="t" class="st7" d="M261.84,284.94l3.62-2.63-1.31-1.81"/>
            <path id="t189" data-name="t" class="st7" d="M261.84,284.94l1.38-4.25,2.13.69"/>
          </g>
        </g>
      </g>
      <g id="b7" data-name="b">
        <g id="s19" data-name="s">
          <g id="c95" data-name="c">
            <path id="t190" data-name="t" class="st7" d="M250,265.62l-1.38,4.25,2.13.69"/>
            <path id="t191" data-name="t" class="st7" d="M250,265.62l1.38,4.25-2.13.69"/>
          </g>
          <g id="c96" data-name="c">
            <path id="t192" data-name="t" class="st7" d="M254.25,268.71h-4.47v2.23"/>
            <path id="t193" data-name="t" class="st7" d="M254.25,268.71l-3.62,2.63-1.31-1.81"/>
          </g>
          <g id="c97" data-name="c">
            <path id="t194" data-name="t" class="st7" d="M245.75,268.71l3.62,2.63,1.31-1.81"/>
            <path id="t195" data-name="t" class="st7" d="M245.75,268.71h4.47v2.23"/>
          </g>
          <g id="c98" data-name="c">
            <path id="t196" data-name="t" class="st7" d="M252.63,273.7l-1.38-4.25-2.13.69"/>
            <path id="t197" data-name="t" class="st7" d="M252.63,273.7l-3.62-2.63,1.31-1.81"/>
          </g>
          <g id="c99" data-name="c">
            <path id="t198" data-name="t" class="st7" d="M247.37,273.7l3.62-2.63-1.31-1.81"/>
            <path id="t199" data-name="t" class="st7" d="M247.37,273.7l1.38-4.25,2.13.69"/>
          </g>
        </g>
      </g>
      <g id="f6" data-name="f">
        <g id="s20" data-name="s">
          <g id="c100" data-name="c">
            <path id="t200" data-name="t" class="st7" d="M237.4,277.75l-1.1,3.4,1.7.55"/>
            <path id="t201" data-name="t" class="st7" d="M237.4,277.75l1.1,3.4-1.7.55"/>
          </g>
          <g id="c101" data-name="c">
            <path id="t202" data-name="t" class="st7" d="M240.8,280.22h-3.58s0,1.79,0,1.79"/>
            <path id="t203" data-name="t" class="st7" d="M240.8,280.22l-2.89,2.1-1.05-1.45"/>
          </g>
          <g id="c102" data-name="c">
            <path id="t204" data-name="t" class="st7" d="M234,280.22l2.89,2.1,1.05-1.45"/>
            <path id="t205" data-name="t" class="st7" d="M234,280.22h3.58s0,1.79,0,1.79"/>
          </g>
          <g id="c103" data-name="c">
            <path id="t206" data-name="t" class="st7" d="M239.5,284.22l-1.1-3.4-1.7.55"/>
            <path id="t207" data-name="t" class="st7" d="M239.5,284.22l-2.89-2.1,1.05-1.45"/>
          </g>
          <g id="c104" data-name="c">
            <path id="t208" data-name="t" class="st7" d="M235.3,284.22l2.89-2.1-1.05-1.45"/>
            <path id="t209" data-name="t" class="st7" d="M235.3,284.22l1.1-3.4,1.7.55"/>
          </g>
        </g>
      </g>
      <g id="h1" data-name="h">
        <g id="s21" data-name="s">
          <g id="c105" data-name="c">
            <path id="t210" data-name="t" class="st7" d="M243.7,287.45l-.79,2.43,1.21.39"/>
            <path id="t211" data-name="t" class="st7" d="M243.7,287.45l.79,2.43-1.21.39"/>
          </g>
          <g id="c106" data-name="c">
            <path id="t212" data-name="t" class="st7" d="M246.13,289.22h-2.55s0,1.28,0,1.28"/>
            <path id="t213" data-name="t" class="st7" d="M246.13,289.22l-2.07,1.5-.75-1.03"/>
          </g>
          <g id="c107" data-name="c">
            <path id="t214" data-name="t" class="st7" d="M241.27,289.22l2.07,1.5.75-1.03"/>
            <path id="t215" data-name="t" class="st7" d="M241.27,289.22h2.55s0,1.28,0,1.28"/>
          </g>
          <g id="c108" data-name="c">
            <path id="t216" data-name="t" class="st7" d="M245.2,292.07l-.79-2.43-1.21.39"/>
            <path id="t217" data-name="t" class="st7" d="M245.2,292.07l-2.07-1.5.75-1.03"/>
          </g>
          <g id="c109" data-name="c">
            <path id="t218" data-name="t" class="st7" d="M242.2,292.07l2.07-1.5-.75-1.03"/>
            <path id="t219" data-name="t" class="st7" d="M242.2,292.07l.79-2.43,1.21.39"/>
          </g>
        </g>
      </g>
      <g id="b8" data-name="b">
        <g id="s22" data-name="s">
          <g id="c110" data-name="c">
            <path id="t220" data-name="t" class="st7" d="M287.45,329.8l-1.38,4.25,2.13.69"/>
            <path id="t221" data-name="t" class="st7" d="M287.45,329.8l1.38,4.25-2.13.69"/>
          </g>
          <g id="c111" data-name="c">
            <path id="t222" data-name="t" class="st7" d="M291.7,332.89h-4.47v2.23"/>
            <path id="t223" data-name="t" class="st7" d="M291.7,332.89l-3.62,2.63-1.31-1.81"/>
          </g>
          <g id="c112" data-name="c">
            <path id="t224" data-name="t" class="st7" d="M283.2,332.89l3.62,2.63,1.31-1.81"/>
            <path id="t225" data-name="t" class="st7" d="M283.2,332.89h4.47v2.23"/>
          </g>
          <g id="c113" data-name="c">
            <path id="t226" data-name="t" class="st7" d="M290.08,337.88l-1.38-4.25-2.13.69"/>
            <path id="t227" data-name="t" class="st7" d="M290.08,337.88l-3.62-2.63,1.31-1.81"/>
          </g>
          <g id="c114" data-name="c">
            <path id="t228" data-name="t" class="st7" d="M284.83,337.88l3.62-2.63-1.31-1.81"/>
            <path id="t229" data-name="t" class="st7" d="M284.83,337.88l1.38-4.25,2.13.69"/>
          </g>
        </g>
      </g>
      <g id="f7" data-name="f">
        <g id="s23" data-name="s">
          <g id="c115" data-name="c">
            <path id="t230" data-name="t" class="st7" d="M298.18,319.63l-1.1,3.4,1.7.55"/>
            <path id="t231" data-name="t" class="st7" d="M298.18,319.63l1.1,3.4-1.7.55"/>
          </g>
          <g id="c116" data-name="c">
            <path id="t232" data-name="t" class="st7" d="M301.58,322.1h-3.58s0,1.79,0,1.79"/>
            <path id="t233" data-name="t" class="st7" d="M301.58,322.1l-2.89,2.1-1.05-1.45"/>
          </g>
          <g id="c117" data-name="c">
            <path id="t234" data-name="t" class="st7" d="M294.78,322.1l2.89,2.1,1.05-1.45"/>
            <path id="t235" data-name="t" class="st7" d="M294.78,322.1h3.58s0,1.79,0,1.79"/>
          </g>
          <g id="c118" data-name="c">
            <path id="t236" data-name="t" class="st7" d="M300.28,326.09l-1.1-3.4-1.7.55"/>
            <path id="t237" data-name="t" class="st7" d="M300.28,326.09l-2.89-2.1,1.05-1.45"/>
          </g>
          <g id="c119" data-name="c">
            <path id="t238" data-name="t" class="st7" d="M296.08,326.09l2.89-2.1-1.05-1.45"/>
            <path id="t239" data-name="t" class="st7" d="M296.08,326.09l1.1-3.4,1.7.55"/>
          </g>
        </g>
      </g>
      <g id="f8" data-name="f">
        <g id="s24" data-name="s">
          <g id="c120" data-name="c">
            <path id="t240" data-name="t" class="st7" d="M277.58,316.56l-1.1,3.4,1.7.55"/>
            <path id="t241" data-name="t" class="st7" d="M277.58,316.56l1.1,3.4-1.7.55"/>
          </g>
          <g id="c121" data-name="c">
            <path id="t242" data-name="t" class="st7" d="M280.98,319.03h-3.58s0,1.79,0,1.79"/>
            <path id="t243" data-name="t" class="st7" d="M280.98,319.03l-2.89,2.1-1.05-1.45"/>
          </g>
          <g id="c122" data-name="c">
            <path id="t244" data-name="t" class="st7" d="M274.18,319.03l2.89,2.1,1.05-1.45"/>
            <path id="t245" data-name="t" class="st7" d="M274.18,319.03h3.58s0,1.79,0,1.79"/>
          </g>
          <g id="c123" data-name="c">
            <path id="t246" data-name="t" class="st7" d="M279.68,323.03l-1.1-3.4-1.7.55"/>
            <path id="t247" data-name="t" class="st7" d="M279.68,323.03l-2.89-2.1,1.05-1.45"/>
          </g>
          <g id="c124" data-name="c">
            <path id="t248" data-name="t" class="st7" d="M275.48,323.03l2.89-2.1-1.05-1.45"/>
            <path id="t249" data-name="t" class="st7" d="M275.48,323.03l1.1-3.4,1.7.55"/>
          </g>
        </g>
      </g>
      <g id="a5" data-name="a">
        <g id="s25" data-name="s">
          <g id="c125" data-name="c">
            <path id="t250" data-name="t" class="st7" d="M199.78,311.03l-1.66,5.1,2.55.83"/>
            <path id="t251" data-name="t" class="st7" d="M199.78,311.03l1.66,5.1-2.55.83"/>
          </g>
          <g id="c126" data-name="c">
            <path id="t252" data-name="t" class="st7" d="M204.88,314.74h-5.36s0,2.68,0,2.68"/>
            <path id="t253" data-name="t" class="st7" d="M204.88,314.74l-4.34,3.15-1.58-2.17"/>
          </g>
          <g id="c127" data-name="c">
            <path id="t254" data-name="t" class="st7" d="M194.68,314.74l4.34,3.15,1.58-2.17"/>
            <path id="t255" data-name="t" class="st7" d="M194.68,314.74h5.36s0,2.68,0,2.68"/>
          </g>
          <g id="c128" data-name="c">
            <path id="t256" data-name="t" class="st7" d="M202.93,320.73l-1.66-5.1-2.55.83"/>
            <path id="t257" data-name="t" class="st7" d="M202.93,320.73l-4.34-3.15,1.58-2.17"/>
          </g>
          <g id="c129" data-name="c">
            <path id="t258" data-name="t" class="st7" d="M196.63,320.73l4.34-3.15-1.58-2.17"/>
            <path id="t259" data-name="t" class="st7" d="M196.63,320.73l1.66-5.1,2.55.83"/>
          </g>
        </g>
      </g>
      <g id="i">
        <g id="s26" data-name="s">
          <g id="c130" data-name="c">
            <path id="t260" data-name="t" class="st7" d="M250,346.1l-.55,1.7.85.28"/>
            <path id="t261" data-name="t" class="st7" d="M250,346.1l.55,1.7-.85.28"/>
          </g>
          <g id="c131" data-name="c">
            <path id="t262" data-name="t" class="st7" d="M251.7,347.33h-1.79s0,.89,0,.89"/>
            <path id="t263" data-name="t" class="st7" d="M251.7,347.33l-1.45,1.05-.53-.72"/>
          </g>
          <g id="c132" data-name="c">
            <path id="t264" data-name="t" class="st7" d="M248.3,347.33l1.45,1.05.53-.72"/>
            <path id="t265" data-name="t" class="st7" d="M248.3,347.33h1.79s0,.89,0,.89"/>
          </g>
          <g id="c133" data-name="c">
            <path id="t266" data-name="t" class="st7" d="M251.05,349.33l-.55-1.7-.85.28"/>
            <path id="t267" data-name="t" class="st7" d="M251.05,349.33l-1.45-1.05.53-.72"/>
          </g>
          <g id="c134" data-name="c">
            <path id="t268" data-name="t" class="st7" d="M248.95,349.33l1.45-1.05-.53-.72"/>
            <path id="t269" data-name="t" class="st7" d="M248.95,349.33l.55-1.7.85.28"/>
          </g>
        </g>
      </g>
    </g>
  </g>
</svg>