<?xml version="1.0" encoding="UTF-8"?>
<svg id="Layer_1" xmlns="http://www.w3.org/2000/svg" xmlns:xlink="http://www.w3.org/1999/xlink" version="1.1" viewBox="0 0 500 500">
  <!-- Generator: Adobe Illustrator 30.1.0, SVG Export Plug-In . SVG Version: 2.1.1 Build 136)  -->
  <defs>
    <style>
      .st0 {
        fill: none;
      }

      .st1 {
        fill: #fff;
      }

      .st2 {
        fill: red;
      }

      .st3 {
        clip-path: url(#clippath);
      }
    </style>
    <clipPath id="clippath">
      <circle class="st0" cx="250" cy="250" r="250"/>
    </clipPath>
  </defs>
  <g class="st3">
    <g>
      <path class="st2" d="M-250,0H0l10.31,10.31h479.38l10.31-10.31h250v500h-250l-10.31-10.31H10.31l-10.31,10.31h-250V0Z"/>
      <path class="st1" d="M0,0h500v500H0V0ZM259.38,461.46l-4.69-89.9c-.25-5.46,3.97-10.09,9.43-10.34.71-.03,1.43.01,2.13.13l89.48,15.73-12.08-33.33c-1.01-2.72-.17-5.78,2.08-7.6l98.02-79.38-22.08-10.31c-3.09-1.46-4.6-4.99-3.54-8.23l19.38-59.58-56.46,11.98c-3.15.66-6.33-1-7.6-3.96l-10.94-25.73-44.06,47.29c-2.57,2.71-6.86,2.83-9.57.26-1.68-1.59-2.43-3.92-1.99-6.19l21.25-109.58-34.06,19.69c-3.23,1.89-7.37.81-9.27-2.42-.08-.13-.15-.26-.21-.39l-34.58-67.92-34.58,67.92c-1.67,3.34-5.74,4.7-9.08,3.03-.13-.07-.27-.14-.39-.21l-34.06-19.69,21.25,109.58c.71,3.67-1.7,7.22-5.37,7.93-2.27.44-4.6-.31-6.19-1.99l-44.06-47.29-10.94,25.73c-1.27,2.96-4.45,4.62-7.6,3.96l-56.46-11.98,19.38,59.58c1.06,3.24-.46,6.77-3.54,8.23l-22.08,10.31,98.02,79.38c2.25,1.83,3.09,4.88,2.08,7.6l-12.08,33.33,89.48-15.73c5.39-.93,10.5,2.69,11.43,8.08.12.7.17,1.42.13,2.13l-4.69,89.9h18.75Z"/>
    </g>
  </g>
</svg>