<?xml version="1.0" encoding="UTF-8"?>
<svg id="Layer_1" xmlns="http://www.w3.org/2000/svg" xmlns:xlink="http://www.w3.org/1999/xlink" version="1.1" viewBox="0 0 500 500">
  <!-- Generator: Adobe Illustrator 30.1.0, SVG Export Plug-In . SVG Version: 2.1.1 Build 136)  -->
  <defs>
    <style>
      .st0 {
        fill: none;
      }

      .st1 {
        fill: #ee1c25;
      }

      .st2 {
        fill: #ff0;
      }

      .st3 {
        clip-path: url(#clippath);
      }
    </style>
    <clipPath id="clippath">
      <circle class="st0" cx="249" cy="250" r="250"/>
    </clipPath>
  </defs>
  <g class="st3">
    <g>
      <path class="st1" d="M-1,0h750v500H-1"/>
      <path id="a" class="st2" d="M124,50l44.09,135.68L52.67,101.82h142.66l-115.42,83.85L124,50Z"/>
      <path id="a1" data-name="a" class="st2" d="M258.78,26.99l-4.17,47.37-24.47-40.78,43.76,18.61-46.34,10.67,31.22-35.87Z"/>
      <path id="a2" data-name="a" class="st2" d="M316.94,82.59l-22.23,42.04-6.73-47.07,33.11,34.13-46.85-8.15,42.69-20.94Z"/>
      <path id="a3" data-name="a" class="st2" d="M322.48,166.43l-37.44,29.31,13.06-45.72,16.31,44.67-39.45-26.55,47.52-1.7Z"/>
      <path id="a4" data-name="a" class="st2" d="M257.82,201.61l-2.21,47.5-26.14-39.73,44.5,16.78-45.86,12.58,29.71-37.13Z"/>
    </g>
  </g>
</svg>