<?xml version="1.0" encoding="UTF-8"?>
<svg id="Layer_1" xmlns="http://www.w3.org/2000/svg" xmlns:xlink="http://www.w3.org/1999/xlink" version="1.1" viewBox="0 0 500 500">
  <!-- Generator: Adobe Illustrator 30.1.0, SVG Export Plug-In . SVG Version: 2.1.1 Build 136)  -->
  <defs>
    <style>
      .st0 {
        fill: none;
      }

      .st1 {
        fill: #fff;
      }

      .st2 {
        fill: #005430;
      }

      .st3 {
        clip-path: url(#clippath);
      }
    </style>
    <clipPath id="clippath">
      <circle class="st0" cx="248" cy="249" r="250"/>
    </clipPath>
  </defs>
  <g class="st3">
    <path id="green" class="st2" d="M-125,499h750V-1H-125v500Z"/>
    <g id="white">
      <g id="shahada">
        <path class="st1" d="M437.5,197.6c-.05-8.78-3.46-32.44-4.33-40.38-.86-7.94-1.73-15.14-1.52-16.82.21-1.63,2.71,2.26,4.03,2.58.68-.14.38-2.59-.87-4.69-.84-1.42-3.71-6.75-5.46-9.87-.82-1.48-1-2.33-1.4-2.52-.39-.18-3.56,6.21-3.22,6.92.87,1.3,1.46,1.92,1.59,4.22.14,2.3,1.32,18.69,2.84,31.11,1.14,9.37,3.64,29.57,3.73,42.13.03,4.1-.43,8-.97,9.63-1.4,2.56-3.59,4.87-11.73,9.64-9.16,5.36-21.37,9.82-26.62,12.8-3.26,1.86-2.18,2.11.66,1.3,2.83-.81,17.49-3.43,24.62-6.43,6.69-2.83,11.02-7.57,14.32-14.48,4.07-8.54,4.38-15.8,4.32-25.13"/>
        <path class="st1" d="M409.16,130.88c.71-.27,6.57-.58,8.14-.25-1.04,1.48-8.06,4.76-8.09,5.36.19.41,4.85-.75,6.32-1.39.96-.58,1.6-1.47,2.31-2.22,1.68-1.93,3.67-5.52,3.17-5.97-.81-.73-8.8-.27-9.85-.12-.71.1-2.49,3.31-2.82,4.13-.32.82.11.73.82.46"/>
        <path class="st1" d="M421.12,182.94c1.22-4.14,1.52-9.15-.14-14.44-1.71-5.44-5.95-8.75-9.01-10.45l-.55,5.24s4.29,2.13,7.22,7.5c1.86,3.4,2.63,8.22,1.16,13.58-.24,1.33.71.6,1.31-1.43"/>
        <path class="st1" d="M375.75,209.2c1.1-3.72,1.37-8.24-.12-13-1.54-4.9-5.36-7.88-8.11-9.41l-.49,4.71s3.86,1.92,6.5,6.75c1.68,3.06,2.37,7.4,1.05,12.23-.22,1.19.64.54,1.17-1.29"/>
        <path class="st1" d="M218.22,137.91c1.77,3.23,2.5,7.81,1.11,12.9-.23,1.26.67.57,1.24-1.35,1.15-3.93,1.44-8.69-.14-13.72-1.62-5.17-5.65-8.31-8.56-9.92l-.51,4.97s4.07,2.02,6.86,7.12"/>
        <path class="st1" d="M111.88,139.58c1.48,3.48,1.58,8.17-.81,13.12-.47,1.24.67.65,1.62-1.21,1.94-3.8,3.04-8.56,2.05-13.81-1.01-5.4-5.07-9.09-8.11-11.08l-1.38,4.94s4.29,2.56,6.63,8.04"/>
        <path class="st1" d="M141.27,217.32c1.89-3.5,2.67-5.85,3.51-10,.73-3.65.78-7.86.52-12.15,5.64-2.3,12.37-6.12,14.63-6.4-1.55,5.31,2.14,11.03,9.59,10.28.57,6,1.06,11.27,1.36,14.39.61,6.41.52,14.48.5,15.88-.03,1.41,1,1.14,2.04-2,1.4-4.2,1.83-15.18,1.32-22.44-.12-1.81-.33-4.27-.58-7.06,4.83-2.23,5.63-6.55,7.44-8.39,1.63,5.71,10.6,6.48,13.37,5.26,3.43-1.52,4.56-4.25,5.44-10.58.89-6.33-1.69-8.88-2.62-9.57-.09.77-2.34,8.21-2.34,8.21,0,0,2.13,2.25,2.24,3.36-1.73,1.57-5.39,1.67-8.47.67-3.07-1-4.02-2.84-3.83-4.08.18-1.24,1.34-2.37,1.37-3.87.03-1.51-.69-1.07-1.92.26-1.23,1.34-2.02,2.54-3.73,5.41-1.39,2.35-3.65,5.21-7.64,6.03-.66-6.9-1.41-14.23-1.91-18.84-.26-2.43-2.89-23.46-3.07-25.81-.16-2.05-.47-4.47-.42-5.6.05-.9.62-.54,1.49.4.88.94,2.41,2.59,2.68,2.46.89-.44-.02-3.17-1.19-5.62-1.17-2.45-5.16-12.14-6-12.54-.43-.2-3.12,5.76-3.28,6.93.42.73,1.51,1.89,1.55,5.17.01.92.6,9.55,1.42,17.72.71,7.21,1.66,14.05,1.75,14.85.65,5.5,1.44,13.26,2.19,20.89-4.33-.82-5.48-3.68-5.38-5.3.11-1.84.94-3.91.54-4.38-.83-.5-5.79,2.27-12.7,5.25-1.94.84-4.14,1.73-6.45,2.58-.6-5.2-1.4-10.14-1.72-13.92l-.04-.42c4.55-.29,8.27-2.59,9.96-4.78,2.12-2.73,3.6-8.36,3.74-12.67.14-4.31-3.34-12.2-4.17-14.71-.84-2.51-1.27-4.25-1.34-5.12-.08-.87,1.88,1,3.11,1.37.83.17.55-1.64-.47-2.88-1.01-1.23-6.48-9.53-6.86-8.95-.24.34-2.43,6.45-2.57,7.38.86.57,1.87,2.14,1.94,3.64.07,1.5,1.28,8.12,2.61,11.8,1.34,3.68,4.19,10.73,4.37,12.67-2.04,1.44-6.68,3.87-11.27,3.72-.79-6.43-1.78-13.9-2.31-19.19-.21-2.04-.22-4.23-.19-5.37.03-.9.68-.78,1.57.15.9.93,2.28,2.28,2.56,2.18.62-.2.08-2.25-1.14-4.69s-6.07-12.73-6.93-13.11c-.43-.2-2.6,5.58-2.74,6.76.43.73,1.55,1.86,1.65,5.14.09,2.61,1.36,15.43,2.45,26.71-4.54-2.35-6.09-5.71-6.65-11.34-.39-3.93-.43-11.17-1.83-17.22-.79-3.42-2.45-6.9-4.43-8.75-.47,1.14-2.57,8.12-2.57,8.12.68,2,2.81,8.76,2.74,14.61-.07,5.85-.53,11.57-7.09,15.51-6.55,3.94-16.38,2.37-18.8-3.78-2.43-6.15,2.97-21.58,2.9-25.22-.07-3.64-.72-4.14-2.25-3.54-1.52.6-4.63,4.11-7.31,9.83-2.68,5.72-3.87,12.8-5.39,17.61-1.52,4.81-3.95,9.69-7.71,9.42-3.76-.27-5.79-3.71-6.94-8.69-1.16-4.98-.45-11.54-.13-13.23.79-4.21-1.03-3.35-2.15,3.26-.69,4.08-1.37,10.59,1.05,17.41,2.42,6.82,6.55,9.36,10.17,8.49,3.62-.87,6.8-9.36,7.93-13.17,1.12-3.81,6.14-20.72,8.98-21.55.4,1.91-2.21,8.05-3.04,15.23-.83,7.19,1.11,16.84,10.23,18.51,9.12,1.67,15.31-4.24,17.55-8.35,2.25-4.11,3.29-8.42,3.55-10.6.29,5.51,4.05,14.12,11.36,16.57l.75.22c.45,4.51,1.18,10.4,1.86,16.59-1.42.44-2.86.84-4.29,1.18-.18-.59-.38-1.17-.63-1.71-2.23-4.8-5.92-9.22-11.04-8.91-5.22.31-10.92,7.28-10.67,12.38.16,3.43,2.05,6.24,8.91,6.96,3.13.33,6.46-.02,9.89-.77.48,1.42.79,2.82.82,4.11-2.17,2.54-20.15,16.1-33.62,17.41-13.46,1.3-17.57-5.75-17.7-12.84-.1-5.39,3.14-10.77,5.42-14.49,3.26-2.38,5.93-5.37,7.62-7.67.46.28.89.54,1.31.79,1.61.93,2.25,2.33,2.25,2.33.3-.46,1.68-2.95,1.14-4.16-.25-.3-1.47-1.05-2.93-1.94,1.54-3.83,1.52-7.65-.47-8.5-2.23-.95-5.13,1.69-6.38,3.29-.65.84-.9,1.78-.9,2.58,0,1.02.47,1.95,1.66,2.77,1.19.81,2.29,1.54,3.33,2.21-2.94,3.09-9.89,7.62-14.15,10.28-.16-.39-.78.02-1.62,1.01l-1.15.71c-3.39,2.08-11.53,6.64-13.13,7.75-1.6,1.12-.6.92,0,.67,1.13-.61,2.61-1.35,4.28-2.16,2.36-1.15,5.11-2.46,7.79-3.77-.79,1.35-1.62,2.92-2.34,4.64-3.2,7.56-8.38,23.23,2.82,32.66,10.71,9.03,29.13,5.59,44.4-3.79,15.27-9.38,18.57-12.68,20.96-16.09M91.48,180.04c-.53-.39-.6-.91-.17-1.27.55-.47,1.25-.91,2.05-1.06,1.69-.31,2.37,1.63,1.69,4.66-1.29-.79-2.61-1.61-3.57-2.33M126.51,192.82c-7.78.04-8.14-1.38-7.99-2.28.14-.9,2.57-3.37,5.64-1.74,1.3.69,2.76,2.13,4.12,3.95-.6.04-1.19.07-1.76.07M102.69,233.72c-14.69,4.01-29.03-2.2-29.89-14.5-.66-9.39,2.76-16.47,4.97-20.46,2.11-1.04,4.1-2.06,5.74-2.96-3.85,6.19-6.1,14.49-4.59,21.52,1.7,7.96,8.63,12.79,20.35,11.23,11.61-1.54,27.31-12.58,31.76-16.74,1.36-1.5,2.25-2.86,3.47-5.62.5-1.13,1.21-2.63,1.47-4.32.17-1.1.26-2.28.28-3.48,1.36-.41,2.73-.86,4.11-1.35.47,5.04.81,10.01.83,14.3-7.23,8.48-23.81,18.38-38.51,22.39"/>
        <path class="st1" d="M359.69,201.46c-.5-8.23-1.7-23.13-2.37-30.68-.59-6.73-1.76-15.94-2.61-24.06-.21-2.04-.24-4-.21-5.14.03-.9.92-.55,1.82.37s2.31,2.09,2.57,1.94c.88-.46-.17-2.71-1.41-5.13-1.23-2.43-6.13-12.48-6.98-12.86-.43-.19-2.73,5.82-2.86,7,.44.73,1.56,1.85,1.68,5.13.12,3.29,1.78,18.39,2.98,30.61.83,8.49,1.9,22.35,2.68,32.8-.04.02.74,9.93.82,11.05.48,6.42.23,14.49.18,15.89-.05,1.41.98,1.16,2.08-1.96,1.13-3.19,1.77-10.31,1.85-16.74l-.23-8.23Z"/>
        <path class="st1" d="M317.97,172.65c-1.51.46-3.87-1.13-3.69-4.47.16-3.02,1.46-5.84,1.95-7.63.68-2.46.69-4.83.11-3.49-1.31,3.01-3.74,8.81-4.24,12.76-.5,3.94.77,6.48,2.51,7.35,2.16,1.09,3.72-.64,4.78-3.18,1.01-2.43.82-5.27.12-4.6-.59.7-.81,3.04-1.54,3.26"/>
        <path class="st1" d="M296.31,184.79c.8-2.12.99-4.2.37-3.06-1.39,2.56-3.98,7.5-4.74,10.93-.76,3.43.16,5.76,1.62,6.64,1.82,1.1,3.32-.31,4.46-2.47,1.08-2.07,1.14-4.58.47-4.04-.58.57-.96,2.61-1.61,2.76-1.37.3-3.32-1.26-2.89-4.19.38-2.64,1.75-5.04,2.33-6.57"/>
        <path class="st1" d="M233.25,229.58c1.34-2.17,2-4.41,1.07-3.28-2.07,2.54-5.98,7.46-7.56,11.07-1.57,3.61-1.07,6.32.33,7.56,1.75,1.54,3.7.27,5.41-1.88,1.64-2.06,2.25-4.8,1.39-4.33-.75.53-1.61,2.68-2.36,2.72-1.55.08-3.35-1.99-2.25-5.11,1-2.82,3.01-5.18,3.97-6.75"/>
        <path class="st1" d="M343.81,166.33c-1.53.38-3.8-1.33-3.42-4.66.34-3,1.81-5.76,2.41-7.51.84-2.42.98-4.79.32-3.48-1.48,2.94-4.25,8.61-5,12.52-.74,3.91.38,6.51,2.06,7.47,2.1,1.19,3.75-.45,4.96-2.93,1.16-2.38,1.14-5.22.39-4.59-.63.67-.99,2.99-1.73,3.18"/>
        <path class="st1" d="M343.34,207.16c2.1,1.19,3.76-.45,4.96-2.93,1.15-2.38,1.14-5.22.4-4.59-.63.67-.99,2.99-1.74,3.18-1.53.38-3.8-1.33-3.42-4.66.34-3,1.81-5.76,2.41-7.51.83-2.42.98-4.79.32-3.48-1.48,2.94-4.25,8.61-5,12.52-.74,3.91.38,6.52,2.06,7.47"/>
        <path class="st1" d="M370.13,155.01c1.01-2.93,1.18-5.8.38-4.21-1.79,3.55-5.15,10.42-6.05,15.15-.89,4.73.46,7.88,2.5,9.04,2.54,1.44,4.54-.54,6.01-3.55,1.39-2.88,1.37-6.32.47-5.55-.76.81-1.2,3.62-2.1,3.85-1.85.46-4.59-1.61-4.13-5.64.42-3.63,2.19-6.97,2.91-9.09"/>
        <path class="st1" d="M156.1,205.74c1.65-3.57,2.25-7.15,1.03-5.25-2.72,4.27-7.84,12.52-9.59,18.37-1.75,5.85-.45,9.96,1.95,11.65,3,2.09,5.79-.18,8.02-3.79,2.13-3.46,2.56-7.8,1.33-6.93-1.06.93-1.98,4.42-3.14,4.6-2.39.38-5.57-2.54-4.46-7.55,1-4.52,3.67-8.52,4.86-11.1"/>
        <path class="st1" d="M387.19,241.19c1.26-1.04,12.26-6.96,14.29-8.16,0,0,2.07-3.38,1.45-3.74-.62-.36-4.64,3.29-7.14,3.39-2.5.1-5.92-1.73-6.03-3.24.32-1.14,3.33-2.84,4.42-2.91,1.09-.06.91,2.41,1.27,2.71.36.3,1.81-1.71,1.99-2.54.18-.83.03-4.32-1.96-3.82-3.15.8-7.9,6.63-8.44,8.47-.55,1.84,2.39,3.44,4.53,4.31-.18.07-1.78.84-2.79,1.84,0,0-1.09,1.22-1.59,3.69"/>
        <path class="st1" d="M349.69,248.52c1.26-1.04,12.26-6.96,14.29-8.16,0,0,2.07-3.38,1.45-3.74-.62-.36-4.64,3.29-7.14,3.39-2.5.1-5.92-1.73-6.03-3.24.32-1.14,3.33-2.84,4.42-2.91,1.09-.07.91,2.4,1.27,2.7.36.3,1.81-1.7,1.99-2.54.18-.83.03-4.32-1.96-3.82-3.15.8-7.9,6.63-8.44,8.47-.55,1.84,2.39,3.44,4.52,4.31-.18.07-1.78.83-2.79,1.84,0,0-1.09,1.22-1.59,3.69"/>
        <path class="st1" d="M265.22,142.35c.99,1.15,7.45,9.35,12.51,14.51,5.06,5.16,13.73,13.52,20.1,19.25,1.23,1.11,2.54,2.31,3.87,3.56,1.61,12.34,3.46,28.04,4.25,34.53.77,6.39.88,14.46.9,15.87.01,1.41,1.03,1.12,1.99-2.04,1.29-4.24,1.44-15.22.76-22.47-.42-4.48-1.43-12.87-2.4-20.6,3.76,3.72,7.32,7.4,9.71,10.16,4.4,5.07,8.11,8.89,10.37,14.34,1.6,3.85,1.44,6.92,2.09,7.53.57.52,1.19-4.09.49-8.56-1.13-7.26-2.68-10.34-12.01-20.71-3.56-3.96-7.74-8.11-11.84-11.98-.16-1.19-.3-2.3-.43-3.28-.32-2.42-3.48-23.39-3.73-25.74-.21-2.04-.58-4.45-.55-5.59.02-.91.6-.55,1.5.37.9.92,2.47,2.54,2.74,2.4.88-.46-.1-3.16-1.34-5.59-1.23-2.42-5.47-12.02-6.32-12.4-.43-.19-2.97,5.82-3.1,7,.44.73,1.56,1.86,1.68,5.14.03.92.85,9.54,1.87,17.68.9,7.19,2.02,14.02,2.14,14.81v.06c-4.22-3.85-7.93-7.12-10.19-9.17-5.27-4.79-16.92-16.17-17.39-17.87-.1-.54.8-.21,2.46.06,1.67.27,3.15.84,2.89.02-.12-.39-.76-1.34-2.35-2.32-1.59-.99-5.67-3.54-8.71-5.35-3.04-1.8-4.55-3.32-5.18-2.88-.31.21-.03,6.39.15,7.16.76.07,2.1.96,3.08,2.11"/>
        <path class="st1" d="M273.53,131.23c1.25-.27,7.16-.12,9.31.33-.9.62-6.95,3.68-8.15,4.41-1.19.73-1.49,1.15-.89,1.08,1.73-.48,5.64-1.08,7.52-2.06,1.77-.83,4.78-4.86,5.95-6.37,1.16-1.5,1.16-2.26.87-2.66-1.2-.65-8.91-1.3-12.62-.38-1.03.7-3.04,4.42-3.34,5.19-.3.78.11.73,1.36.45"/>
        <path class="st1" d="M306.44,130.75c1.01-.22,5.78-.1,7.51.26-.72.5-5.6,2.97-6.56,3.56-.97.58-1.21.93-.72.87,1.4-.38,4.55-.87,6.06-1.66,1.42-.67,3.85-3.92,4.79-5.13.94-1.22.94-1.82.7-2.14-.96-.53-7.17-1.05-10.17-.31-.83.56-2.45,3.56-2.69,4.18-.24.62.09.58,1.09.36"/>
        <path class="st1" d="M333.19,130.41c1-.22,5.77-.1,7.5.26-.72.5-5.6,2.97-6.56,3.56-.96.59-1.2.93-.72.87,1.4-.38,4.8-.87,6.3-1.66,1.42-.67,3.11-3.92,4.05-5.13.94-1.21.94-1.82.7-2.14-.96-.53-6.69-1.05-9.68-.31-.83.57-2.45,3.56-2.69,4.19s.09.58,1.1.36"/>
        <path class="st1" d="M316.5,143.43c-1.58,2.49.4,4.51,1.13,6.52-.98.89-2.48.08-2.98-.7-1.07-1.61-.71-4.88-1.97-5.38-.32.88-.53,1.87-.53,1.87,0,0,.96,2.24.72,3.72-.15.89-.94,1.94-1.99,1.96-2.78.07-1.41-4.05-2.48-6.38-.22.57-.38,1.18-.63,1.72.2.61.3,1.46.34,1.95.06.98-.01,2.03.15,2.86.23,1.18.89,1.96,1.89,2.04,2.08.16,3.02-1.52,3.34-2.9.36,1.41,3.1,2.96,4.46,1.23,1.79-2.28.36-4.23-.56-6.38-.66-1.58-.47-2.63-.87-2.13"/>
        <path class="st1" d="M238.47,136.82c.14,1.03.67,1.73,1.53,1.83,1.78.23,2.68-1.19,3.01-2.36.24,1.23,2.53,2.67,3.78,1.24,1.65-1.89.51-3.63-.18-5.52-.49-1.4-.28-2.28-.65-1.87-1.48,2.08.13,3.9.66,5.67-.89.73-2.14-.04-2.54-.73-.84-1.43-.38-4.23-1.44-4.72-.32.75-.55,1.58-.55,1.58,0,0,.71,1.97.44,3.23-.17.77-.9,1.63-1.8,1.61-2.39-.05-1.02-3.54-1.84-5.59-.21.48-.38,1-.63,1.45.14.54.2,1.27.2,1.7.02.84-.1,1.74,0,2.47"/>
        <path class="st1" d="M295.13,233.47c.27-.42.86-1.59.71-2.38s-1.12-4.12-3.02-4.95c-1.88-.83-3.31.91-4.21,3.34h-.63c-.15.34-.34.88-.48,1.85-.21,1.4-.61,2.3-3.01,4.48-2.02,1.82-8.56,6.2-12.79,8.26-4.24,2.06-7.29,3.84-8.42,4.38-1.12.53-.79.73.33.39,1.12-.33,6.75-2.15,8.99-3.07,2.24-.93,4.98-2.46,8.28-4.6,3.67-2.38,5.86-4.76,6.6-6.87.52-1.5.66-2.11.66-2.11,0,0,1.38.81,3.72,1.35,2.33.54,2.99.36,3.26-.07M291.96,228.75c1.04.39,1.67,1.53,1.86,2.21-1.19.03-3.39-.58-4.32-1,.56-1.09,1.54-1.56,2.46-1.21"/>
        <path class="st1" d="M270.28,235.8c-3.25-.45-11.46-1.7-13.46-6.46,1.68-2.46,9.44-5.57,19.16-8.48,9.72-2.9,19.87-6.67,22.6-8.49.6-.2,1.76-.14,1.76-.14.49-1.41,2.93-6.35,3.08-7.38-2.72.15-19.46,1.38-26.9,1.78-7.44.4-21.77.3-26.55.25,2.93-2.11,9.88-6.22,19.81-9.72,1.29-.46,2.48-.87,3.59-1.24.83,1.47,1.44,2.93,1.57,4.2.63-.65,1.11-2.8.95-5.02,5.79-1.85,8.77-2.46,10.06-2.81.81-1.05,2.25-5.31,2.47-8.41-.87-1.58-3.57-3.54-5.98-5.23-3.32-2.32-6.9-4.34-10.48-3.46-4.89,1.2-5.87,10.18-4.73,12.08.36.6,1.22,1.67,2.24,2.98-3.57,1.4-7.3,3.05-10.6,4.79-7.33,3.86-15.52,8.09-17.9,12.15l-.68.33c-.19.38-1.7,6.67-1.92,7.35,1.52-.05,12.91-.03,20.84-.28,7.93-.25,14.85-.5,17.57-.5-4.02.95-14.55,4.87-17.58,7.17-3.03,2.31-4.93,5.82-4.98,11.83-2.82-1.11-8.07-3.63-12.54-9.68-4.99-6.74-3.95-13.67-5.95-22.77-2.9-13.2-9.09-24.35-12.94-27.76-1.3,4.66-1.47,8.17-1.47,8.17,0,0,4.83,10.68,7.27,17.49,2.44,6.82,4.53,13.54,4.43,15.04-2.01,4.41-13.93,13.66-23.86,19.08-9.42,5.13-17.71,5.69-20.65,2.03-.58-.71-.97-1.56-1.19-2.51,1.28-.6,2.56-1.2,3.88-1.8,8.47-3.86,23.51-11.98,27.03-16.24,3.8-5.16,3.75-12.43,1.52-16.6-2.22-4.16-5.7-8.98-5.98-10.68-.21-.8,2.26.33,3.72.4.71-.05.35-1-1.16-2.51-1.21-1.2-5.91-5.09-7.7-6.61-.45-.39-.79-.23-.88.18-.35,1.55-1.06,4.88-1.34,6.52l.19.83c.52.31,1.11.65,1.4,1.51.41,1.22,1.83,4.62,4.16,8.9,2.34,4.29,5.71,9.02,6.04,11.41-2.74,3.5-16.58,10.95-30.05,17.09.83-2.58,2.15-5.5,3.89-8.75.5-.55.95-1.23,1.37-1.99,1.34-2.46,1.47-5.46.66-4.82-.7.67-1.2,3.11-2,3.28-1.64.34-3.93-1.57-3.36-5.07.52-3.15,2.21-6,2.94-7.82,1.01-2.52,1.29-5.01.52-3.66-1.72,3.03-4.94,8.89-5.93,12.98-.99,4.09.06,6.89,1.79,7.97.65.41,1.26.54,1.85.46-1.18,2.25-2.64,5.01-3.71,8.3-5.42,2.42-10.69,4.59-15.06,6.15-15.69,5.62-26.87,8.92-34.69,11.38l-.31.14c.58-1.86.5-3.45-.12-2.97-.7.68-1.2,3.11-2,3.28-1.64.34-3.93-1.57-3.36-5.07.52-3.15,2.21-5.99,2.94-7.81,1-2.52,1.28-5.01.52-3.66-1.72,3.03-4.94,8.89-5.93,12.98-.99,4.09.06,6.89,1.78,7.97,2.15,1.35,3.98-.31,5.39-2.87l.49-1.05c.49,0,1.31-.11,2.54-.39,3.58-.81,12.54-2.11,24.86-3.71,9.12-1.19,15.42-3.69,21.51-6.48-.03.67-.03,1.36,0,2.07.33,8.36,5.81,10.72,13.3,9.15,7.23-1.52,17.3-8.14,23.34-12.61,6.3-4.66,9.93-8.82,10.86-10.28,1.68-3.56,2.14-7.49,2.26-9.35.55,5.11,1,12.19,5.83,18.25,4.45,5.58,13.57,13.38,30.73,13.59.06-2.04-.76-8.41-.76-8.41M269.15,184.01c2.46-2.76,7.7-.95,11.63,2.54-2.02.47-4.75,1.31-7.77,2.39-1.79-2.16-3.8-4.25-3.86-4.93"/>
        <path class="st1" d="M172.7,146.22c1.11-.51,4.52-2.04,8.19-4.18,3.67-2.13,7.11-4.7,8.79-6.41.65-.66,1.22-1.17,1.59-1.78,1.1.46,1.86.93,2.33,1.11.71.27,1.66.67,2.27-1.35.61-2.02-.2-3.32-1.4-4.88-1.02-1.31-2.63-3.27-3.94-3.76-1.11-.42-1.64,2.06-1.47,2h.74l.14.07c-1.53.77-2.71,3.17-2.83,4.01-.12.92.05,1.59,2.24,2.15l.88.26c-1.83,2.17-5.24,4.4-7.56,5.99-3.29,2.26-7.97,5.08-9.3,5.89-1.33.81-1.22,1.07-.7.87M192.49,130.31l.12-1.08c1.54,1.76,2.68,3.85,2.57,4.14-.71.06-1.59-.6-3.13-1.26.17-.52.31-1.1.44-1.8M188.07,130.31c0-.33.58-1.25,1.84-1.75,1.25-.5,1.81.9,1.92,2.62l-.37.69-1.13-.39c-1.2-.35-2-.55-2.26-1.17"/>
        <path class="st1" d="M254.84,179.27c1.81-1.19,6.78-4.78,9.6-7.13,1.96-1.63,4.26-4.04,5.83-6.07.98.64,1.9,1.2,2.73,1.69,1.61.94,2.25,2.33,2.25,2.33.3-.46,1.68-2.95,1.14-4.16-.32-.4-2.3-1.55-4.32-2.79,1.02-2.3,2.44-6.28.42-7.67-1.73-1.18-4.64.77-5.99,3.31-1.11,2.1-1.26,3.89.87,5.35.6.41,1.17.8,1.73,1.17-2.14,2.34-6.09,5.81-8.9,8.18-3.49,2.92-6.79,5.78-7.37,6.47l-.17.27c-.76-2.12-.55-3.43-1.12-2.73-2.44,3.83.62,6.94,1.73,10.04-1.51,1.37-3.81.11-4.59-1.08-1.65-2.48-1.1-7.51-3.03-8.29-.5,1.36-.82,2.87-.82,2.87,0,0,1.47,3.45,1.1,5.72-.23,1.38-1.45,2.99-3.05,3.01-4.28.11-2.17-6.23-3.82-9.81-.34.88-.58,1.82-.98,2.64.3.94.47,2.25.51,3.01.11,1.5-.01,3.12.24,4.41.35,1.81,1.36,3.02,2.9,3.13,3.19.26,4.65-2.34,5.14-4.45.55,2.17,4.78,4.55,6.86,1.89,2.76-3.51.55-6.51-.86-9.82l-.17-.43c.2.07.93-.25,2.14-1.05M267.33,159.51c1.06-1.96,3.29-2.13,3.96-1.1.53.82.58,2.42-.22,4.1-1.97-1.23-3.72-2.44-3.73-3"/>
        <path class="st1" d="M185.13,166.78c-3.76-.27-5.79-3.71-6.94-8.69-1.16-4.98-.45-11.54-.13-13.23.31-1.68-1.46-.81-2.15,3.27-.68,4.08-1.37,10.59,1.05,17.41,2.42,6.81,6.55,9.36,10.17,8.49,3.62-.87,6.8-9.36,7.93-13.17,1.12-3.81,6.14-19.35,8.98-20.19.4,1.91-2.21,6.69-3.04,13.87-.83,7.19.61,16.61,9.74,18.28,9.12,1.67,15.31-4.24,17.55-8.36,2.25-4.11,3.29-8.42,3.55-10.59.29,5.51,4.05,14.12,11.36,16.58,7.06,2.37,12.45.2,14.84-2.87,2.12-2.73,3.84-8.35,3.99-12.67.14-4.31-3.58-12.2-4.41-14.71-.84-2.5-1.27-4.24-1.34-5.11-.07-.87,1.89,1,3.12,1.37.83.17.54-1.64-.47-2.88-1.01-1.23-6.48-9.53-6.87-8.96-.24.35-2.43,6.45-2.57,7.39.87.57,1.87,2.14,1.95,3.64.07,1.5,1.52,8.12,2.86,11.8s3.94,10.73,4.13,12.67c-2.6,1.84-8.47,4.17-14.04,1.8-5.57-2.38-7.35-5.82-7.96-11.97-.39-3.93-.43-11.17-1.83-17.22-.79-3.42-2.45-6.9-4.43-8.75-.47,1.13-2.57,8.12-2.57,8.12.68,2,2.81,8.76,2.75,14.61-.08,5.85-.54,11.57-7.09,15.51-6.55,3.94-15.88,2.37-18.31-3.78-2.43-6.15,2.97-19.98,2.9-23.63-.07-3.64-.73-4.15-2.25-3.54-1.52.6-4.64,4.11-7.31,9.83-2.68,5.72-3.87,11.43-5.39,16.24-1.52,4.81-3.95,9.69-7.71,9.42"/>
        <path class="st1" d="M75.91,145.46c4.63-.34,8.54-3.85,9.55-4.78,1.01-.94,1.56-2.34.83-1.81-5.35,4.78-12.52,4.91-12.92,4.11.18-.8,2.07-2.11,4.82-3.94,1.67-1.12,3.16-2.16,4.27-3.65l.3.05c2.04.45,4.39,1.34,5.11.62,1.17-1.15,1.33-3.05.06-5.08-1.07-1.73-3.57-3.34-5.75-4.5-2.17-1.16-2.59.69-2.87,1.35-.27.61-.16,1.14.3,1.15-.7.95-1.2,2.18-1.38,3.19-.12.65-.02,1.19.24,1.63.08.12.48.62,1.24.91l.94.29c-1.62,1.5-3.49,2.67-4.47,3.26-1.77,1.07-3.87,2.94-4.52,4.88-.65,1.94-.4,2.64,4.23,2.31M84.1,131.8l.18-.99v-.63c1.47,1.07,3.81,3.09,3.67,4.3-.93-.21-2.7-.58-4.38-1.02.21-.5.39-1.06.53-1.66M79.74,132.11c-1.08-.86-.03-1.72.93-2.27,1.23-.71,1.96-.12,2.59,1.75-.22.54-.53,1.06-.9,1.56-.96-.3-2.31-.77-2.62-1.03"/>
        <path class="st1" d="M89.8,197.73c-1.33,1.15-1.85,4.91-1.57,5.14.27.23,4.43,1.63,5.08,1.93l.3-1.13c1.98,1.78,4.18,10.66,4.67,10.68.49.02,1.2-1,1.66-3.36.43-2.19.85-5.46,1.3-8.12.42-2.44,1.06-3.83,2.53-4.11,1.47-.27,2.55,1.61,2.93,2.88,0,0,1.03-2.46,1.25-3.99-.24-.8-2.53-3.83-4.4-2.83-1.87,1-3.05,5.26-3.43,7.92-.38,2.65-.67,5.95-1.13,6.47-.48-2.27-2.03-6.32-3.91-8.6-2.1-2.55-4.57-3.49-5.27-2.88"/>
        <path class="st1" d="M72.06,193.2c1.74-.48,5.65-1.08,7.52-2.05,1.76-.83,4.78-4.86,5.94-6.37,1.17-1.5,1.17-2.26.87-2.66-1.19-.65-8.91-1.3-12.63-.38-1.03.69-3.04,4.41-3.33,5.19-.3.77.11.73,1.36.45,1.25-.28,7.17-.13,9.31.32-.89.63-6.95,3.69-8.14,4.41-1.19.73-1.49,1.15-.89,1.08"/>
        <path class="st1" d="M430.66,214.74c-.18-4.51-2.39-11.43-10.79-22.06-2.9-3.67-6.98-8.44-11.28-13.33-.12-1.67-.24-3.19-.34-4.5-.56-6.73-2.47-20.46-3.3-28.58-.2-2.05-.22-4.22-.19-5.36.03-.9.68-.78,1.57.15.89.93,2.27,2.28,2.56,2.19.61-.21.08-2.26-1.14-4.69-1.22-2.43-5.83-12.27-6.67-12.66-.44-.19-2.61,5.58-2.74,6.77.43.73,1.55,1.85,1.65,5.14.11,3.28,2.1,22.68,3.23,34.9l.06.68c-6.43-7.18-12.49-13.73-14.98-16.38-.43-.46-.91-.98-1.42-1.54-.41-3.27-.78-6.38-1.04-8.96-.21-2.04-.22-4.22-.19-5.36.02-.9.68-.78,1.57.15.9.93,2.27,2.28,2.56,2.18.61-.21.08-2.26-1.14-4.69-1.22-2.43-6.02-12.5-6.87-12.88-.43-.19-2.7,6.04-2.84,7.22.44.73,1.55,1.86,1.66,5.15.04,1.39.41,5.62.89,10.96-4.26-5.07-8.44-10.37-8.74-11.45-.1-.53.8-.2,2.47.07,1.66.27,3.22.77,2.95-.06-.13-.38-.76-1.34-2.35-2.32-1.59-.99-5.67-3.54-8.71-5.34-3.04-1.8-4.55-3.32-5.18-2.89-.31.21-.03,6.4.14,7.16.76.07,2.18.64,3.08,1.84.91,1.2,6.72,9.36,11.32,14.87,1.32,1.59,3.4,4.05,5.82,6.89.47,5.08.97,10.33,1.38,14.71.93,10,4.29,36.38,4.32,44.96-2.48,2.32-7.54,5.56-12.75,5.63-5.21.07-8.07-1.31-10.17-5.18-.65-1.2-1.25-2.41-1.85-3.5-1.42-2.6-4.59-4.06-7.64-3.34l-.47.12-.83.4c-2.07,1.08-4.21,2.9-6.3,5.71-3.62,4.88-5.93,10.18-8.6,14.77-2.79,4.78-4.93,7.98-9.82,7.22-3.44-.54-6.06-3.49-7.67-7.12,4.53-3.13,7.81-7.22,10.22-12.88,3.13-7.36,4.25-15.65,3.97-24.98-.27-8.78-4.27-29.43-5.33-37.35-1.05-7.92-2.57-14.42-2.39-16.11.16-1.63,2.76,2.21,4.09,2.5.68-.15.31-2.6-.98-4.67-.88-1.41-3.65-7.81-5.47-10.9-.85-1.46-1.06-2.31-1.46-2.48-.39-.18-3.42,6.28-3.05,6.98.89,1.28,1.51,1.89,1.69,4.18.19,2.29,2.26,19.12,4.08,31.51,1.36,9.35,4.38,26.33,4.77,38.88.13,4.1-.46,7.04-.96,8.68-1.3,2.52-3.42,5.31-10.87,10.61-1.15-7.49.1-13.58-.99-14.15-1.23.13-1.43,3.63-1.57,7.93-.07,1.99.02,4.75.39,7.71-9.15,6.12-21.24,11.68-26.92,14.66-3.33,1.75-2.13,2.15.69,1.28,2.82-.88,18.31-4.94,26.58-9.29l.89-.49c.42,1.46.93,2.87,1.55,4.17,2.78,5.78,6.76,9.22,11.07,8.88,3.62-.28,6.25-4.16,8.54-8.78,2.32-4.68,6.23-13.57,10.07-16.88,1.47-1.27,3-2.28,4.48-2.89,0,0,2.62-.88,5.04.7.87.57,1.51,1.38,1.92,2.29.95,2.08,2.08,4.73,4.38,6.95,4.05,3.9,10.57,3.1,15.46.83,4.88-2.27,7.37-5.82,8.46-10.03,1.85-7.21,1.56-14.59,1.2-21.15-.41-7.49-1.6-15.14-2.28-23.24-.22-2.61-.65-6.23-1.14-10.16,4.76,5.5,9.71,11.07,12.7,14.12,1.03,1.05,2.13,2.22,3.25,3.46.89,12.27,1.76,27.62,2.21,34.07.45,6.42.16,14.49.11,15.89-.05,1.4.73,1.16,1.85-1.95,1.5-4.18,2.44-15.14,2.12-22.41-.2-4.32-.63-12.2-1.09-19.65,3.7,4.39,7.2,8.83,9.49,11.82,4.06,5.31,7.79,11.63,9.09,15.57,1.3,3.95,1.44,5.12,1.7,5.82s1.37-2.18,1.2-6.69"/>
      </g>
      <path id="sword" class="st1" d="M362.13,364.84c-.37-1.05-1.49-1.82-2.83-1.82s-2.46.77-2.83,1.82h-12.71c-.13-1.41,0-2.83.4-4.21l26.24-.02.73,1.23c.66,1.11,1.49,2.11,2.46,2.99h-11.46ZM379.5,352.65h-31.54c2.42-1.75,3.69-4.3,3.35-6.88-.22-1.63-1.83-2.84-3.8-3.01h-.99c-2.39.23-4.13,1.96-3.87,3.85l.1.73.12,1.12c.13,1.41,0,2.82-.39,4.19H109.36c3.46,5.04,9.77,8.12,16.59,8.12l212.72-.13c-2.43,1.75-3.71,4.31-3.37,6.9.25,1.89,2.39,3.24,4.78,3.01,2.39-.23,4.12-1.96,3.87-3.85l-.1-.73h12.5c.22,1.22,1.44,2.16,2.92,2.16s2.7-.94,2.93-2.16h12.72v-.03c2.66,1.88,6.03,2.97,9.6,2.97,3.36,0,6.08-2.33,6.08-5.21v-1.51c0-5.26-4.98-9.53-11.12-9.53"/>
    </g>
  </g>
</svg>