<?xml version="1.0" encoding="UTF-8"?>
<svg id="Layer_1" xmlns="http://www.w3.org/2000/svg" xmlns:xlink="http://www.w3.org/1999/xlink" version="1.1" viewBox="0 0 500 500">
  <!-- Generator: Adobe Illustrator 30.1.0, SVG Export Plug-In . SVG Version: 2.1.1 Build 136)  -->
  <defs>
    <style>
      .st0 {
        fill: none;
      }

      .st1 {
        fill: #ed2939;
      }

      .st2 {
        fill: #fff;
      }

      .st3 {
        clip-path: url(#clippath);
      }
    </style>
    <clipPath id="clippath">
      <circle class="st0" cx="250" cy="250" r="250"/>
    </clipPath>
  </defs>
  <g class="st3">
    <g>
      <path class="st2" d="M-3,0h750v500H-3V0Z"/>
      <path class="st1" d="M-3,0h750v250H-3V0Z"/>
      <circle class="st2" cx="155.4" cy="125" r="92.01"/>
      <circle class="st1" cx="197.07" cy="125" r="92.01"/>
      <path id="s" class="st2" d="M205.75,48.26l-14.08,43.34,36.87-26.79h-45.57l36.87,26.79-14.08-43.34Z"/>
      <g id="t">
        <path id="s1" data-name="s" class="st2" d="M278.73,101.29h-45.57s36.87,26.79,36.87,26.79l-14.08-43.34-14.08,43.34,36.87-26.79Z"/>
        <path id="s2" data-name="s" class="st2" d="M160.65,187.08l36.87-26.79h-45.57s36.87,26.79,36.87,26.79l-14.08-43.34-14.08,43.34Z"/>
      </g>
      <g id="t1" data-name="t">
        <path id="s3" data-name="s" class="st2" d="M250.85,187.08l-14.08-43.34-14.08,43.34,36.87-26.79h-45.57s36.87,26.79,36.87,26.79Z"/>
        <path id="s4" data-name="s" class="st2" d="M132.77,101.29l36.87,26.79-14.08-43.34-14.08,43.34,36.87-26.79h-45.57Z"/>
      </g>
    </g>
  </g>
</svg>