<?xml version="1.0" encoding="UTF-8"?>
<svg id="Layer_1" xmlns="http://www.w3.org/2000/svg" xmlns:xlink="http://www.w3.org/1999/xlink" version="1.1" viewBox="0 0 500 500">
  <!-- Generator: Adobe Illustrator 30.1.0, SVG Export Plug-In . SVG Version: 2.1.1 Build 136)  -->
  <defs>
    <style>
      .st0 {
        fill: none;
      }

      .st1 {
        clip-path: url(#clippath-1);
      }

      .st2 {
        fill: #fff;
      }

      .st3 {
        fill: #c8102e;
      }

      .st4 {
        fill: #012169;
      }

      .st5 {
        clip-path: url(#clippath);
      }
    </style>
    <clipPath id="clippath">
      <circle class="st0" cx="250" cy="250" r="250"/>
    </clipPath>
    <clipPath id="clippath-1">
      <polygon class="st0" points="250 250 666.85 250 666.85 500.11 250 500.11 -166.85 500.11 -166.85 250 -166.85 -.11 250 -.11 666.85 -.11 250 250"/>
    </clipPath>
  </defs>
  <g class="st5">
    <g>
      <path class="st4" d="M-166.85-.11v500.21h833.69V-.11H-166.85Z"/>
      <g>
        <path d="M-166.85-.11l833.69,500.21M666.85-.11L-166.85,500.11"/>
        <polygon class="st2" points="641.11 543 250 308.33 -141.11 543 -192.58 457.21 152.78 250 -192.58 42.79 -141.11 -43 250 191.67 641.11 -43 692.58 42.79 347.22 250 692.58 457.21 641.11 543"/>
      </g>
      <g class="st1">
        <g>
          <path d="M-166.85-.11l833.69,500.21M666.85-.11L-166.85,500.11"/>
          <polygon class="st3" points="649.69 528.7 250 288.89 -149.69 528.7 -184 471.51 185.18 250 -184 28.49 -149.69 -28.7 250 211.11 649.69 -28.7 684 28.49 314.82 250 684 471.51 649.69 528.7"/>
        </g>
      </g>
      <g>
        <path class="st3" d="M-183.52,183.3H183.3V-16.78h133.39v200.09h366.82v133.39h-366.82v200.09h-133.39v-200.09H-183.52v-133.39Z"/>
        <path class="st2" d="M333.37,533.45h-166.74v-200.09H-200.19v-166.74H166.63V-33.45h166.74v200.09h366.82v166.74h-366.82v200.09ZM199.98,500.11h100.04v-200.09h366.82v-100.04h-366.82V-.11h-100.04v200.09H-166.85v100.04H199.98v200.09Z"/>
      </g>
    </g>
  </g>
</svg>