<?xml version="1.0" encoding="UTF-8"?>
<svg id="Layer_1" xmlns="http://www.w3.org/2000/svg" xmlns:xlink="http://www.w3.org/1999/xlink" version="1.1" viewBox="0 0 500 500">
  <!-- Generator: Adobe Illustrator 30.1.0, SVG Export Plug-In . SVG Version: 2.1.1 Build 136)  -->
  <defs>
    <style>
      .st0 {
        fill: none;
      }

      .st1 {
        fill: #b31942;
      }

      .st2 {
        fill: #0a3161;
      }

      .st3 {
        fill: #fff;
      }

      .st4 {
        clip-path: url(#clippath);
      }
    </style>
    <clipPath id="clippath">
      <circle class="st0" cx="251.5" cy="250" r="250"/>
    </clipPath>
  </defs>
  <g class="st4">
    <path class="st1" d="M-126.46,0h950v500H-126.46"/>
    <g>
      <path d="M-222,57.69h950M728,134.62H-222M-222,211.54h950M728,288.46H-222M-222,365.38h950M728,442.31H-222"/>
      <path class="st3" d="M728,461.54H-222v-38.46h950v38.46ZM728,384.62H-222v-38.46h950v38.46ZM728,307.69H-222v-38.46h950v38.46ZM728,230.77H-222v-38.46h950v38.46ZM728,153.85H-222v-38.46h950v38.46ZM728,76.92H-222v-38.46h950v38.46Z"/>
    </g>
    <path class="st2" d="M-126.46,0H253.54v269.23H-126.46"/>
    <g>
      <g id="s18">
        <g id="s9">
          <g id="s5">
            <g id="s4">
              <g id="s">
                <path class="st3" d="M-94.79,11.54l9.04,27.83-23.67-17.2h29.26l-23.67,17.2,9.04-27.83Z"/>
              </g>
              <g id="s1" data-name="s">
                <path class="st3" d="M-94.79,65.38l9.04,27.83-23.67-17.2h29.26l-23.67,17.2,9.04-27.83Z"/>
              </g>
              <g id="s2" data-name="s">
                <path class="st3" d="M-94.79,119.23l9.04,27.83-23.67-17.2h29.26l-23.67,17.2,9.04-27.83Z"/>
              </g>
              <g id="s3" data-name="s">
                <path class="st3" d="M-94.79,173.08l9.04,27.83-23.67-17.2h29.26l-23.67,17.2,9.04-27.83Z"/>
              </g>
            </g>
            <g id="s6" data-name="s">
              <path class="st3" d="M-94.79,226.92l9.04,27.83-23.67-17.2h29.26l-23.67,17.2,9.04-27.83Z"/>
            </g>
          </g>
          <g id="s41" data-name="s4">
            <g id="s7" data-name="s">
              <path class="st3" d="M-63.13,38.46l9.04,27.83-23.67-17.2h29.26l-23.67,17.2,9.04-27.83Z"/>
            </g>
            <g id="s8" data-name="s">
              <path class="st3" d="M-63.13,92.31l9.04,27.83-23.67-17.2h29.26l-23.67,17.2,9.04-27.83Z"/>
            </g>
            <g id="s10" data-name="s">
              <path class="st3" d="M-63.13,146.15l9.04,27.83-23.67-17.2h29.26l-23.67,17.2,9.04-27.83Z"/>
            </g>
            <g id="s11" data-name="s">
              <path class="st3" d="M-63.13,200l9.04,27.83-23.67-17.2h29.26l-23.67,17.2,9.04-27.83Z"/>
            </g>
          </g>
        </g>
        <g id="s91" data-name="s9">
          <g id="s51" data-name="s5">
            <g id="s42" data-name="s4">
              <g id="s12" data-name="s">
                <path class="st3" d="M-31.46,11.54l9.04,27.83-23.67-17.2h29.26l-23.67,17.2,9.04-27.83Z"/>
              </g>
              <g id="s13" data-name="s">
                <path class="st3" d="M-31.46,65.38l9.04,27.83-23.67-17.2h29.26l-23.67,17.2,9.04-27.83Z"/>
              </g>
              <g id="s14" data-name="s">
                <path class="st3" d="M-31.46,119.23l9.04,27.83-23.67-17.2h29.26l-23.67,17.2,9.04-27.83Z"/>
              </g>
              <g id="s15" data-name="s">
                <path class="st3" d="M-31.46,173.08l9.04,27.83-23.67-17.2h29.26l-23.67,17.2,9.04-27.83Z"/>
              </g>
            </g>
            <g id="s16" data-name="s">
              <path class="st3" d="M-31.46,226.92l9.04,27.83-23.67-17.2h29.26l-23.67,17.2,9.04-27.83Z"/>
            </g>
          </g>
          <g id="s43" data-name="s4">
            <g id="s17" data-name="s">
              <path class="st3" d="M.21,38.46l9.04,27.83-23.67-17.2H14.84l-23.67,17.2L.21,38.46Z"/>
            </g>
            <g id="s19" data-name="s">
              <path class="st3" d="M.21,92.31l9.04,27.83-23.67-17.2H14.84l-23.67,17.2L.21,92.31Z"/>
            </g>
            <g id="s20" data-name="s">
              <path class="st3" d="M.21,146.15l9.04,27.83-23.67-17.2H14.84l-23.67,17.2L.21,146.15Z"/>
            </g>
            <g id="s21" data-name="s">
              <path class="st3" d="M.21,200l9.04,27.83-23.67-17.2H14.84l-23.67,17.2L.21,200Z"/>
            </g>
          </g>
        </g>
      </g>
      <g id="s181" data-name="s18">
        <g id="s92" data-name="s9">
          <g id="s52" data-name="s5">
            <g id="s44" data-name="s4">
              <g id="s22" data-name="s">
                <path class="st3" d="M31.87,11.54l9.04,27.83-23.67-17.2h29.26l-23.67,17.2,9.04-27.83Z"/>
              </g>
              <g id="s23" data-name="s">
                <path class="st3" d="M31.87,65.38l9.04,27.83-23.67-17.2h29.26l-23.67,17.2,9.04-27.83Z"/>
              </g>
              <g id="s24" data-name="s">
                <path class="st3" d="M31.87,119.23l9.04,27.83-23.67-17.2h29.26l-23.67,17.2,9.04-27.83Z"/>
              </g>
              <g id="s25" data-name="s">
                <path class="st3" d="M31.87,173.08l9.04,27.83-23.67-17.2h29.26l-23.67,17.2,9.04-27.83Z"/>
              </g>
            </g>
            <g id="s26" data-name="s">
              <path class="st3" d="M31.87,226.92l9.04,27.83-23.67-17.2h29.26l-23.67,17.2,9.04-27.83Z"/>
            </g>
          </g>
          <g id="s45" data-name="s4">
            <g id="s27" data-name="s">
              <path class="st3" d="M63.54,38.46l9.04,27.83-23.67-17.2h29.26l-23.67,17.2,9.04-27.83Z"/>
            </g>
            <g id="s28" data-name="s">
              <path class="st3" d="M63.54,92.31l9.04,27.83-23.67-17.2h29.26l-23.67,17.2,9.04-27.83Z"/>
            </g>
            <g id="s29" data-name="s">
              <path class="st3" d="M63.54,146.15l9.04,27.83-23.67-17.2h29.26l-23.67,17.2,9.04-27.83Z"/>
            </g>
            <g id="s30" data-name="s">
              <path class="st3" d="M63.54,200l9.04,27.83-23.67-17.2h29.26l-23.67,17.2,9.04-27.83Z"/>
            </g>
          </g>
        </g>
        <g id="s93" data-name="s9">
          <g id="s53" data-name="s5">
            <g id="s46" data-name="s4">
              <g id="s31" data-name="s">
                <path class="st3" d="M95.21,11.54l9.04,27.83-23.67-17.2h29.26l-23.67,17.2,9.04-27.83Z"/>
              </g>
              <g id="s32" data-name="s">
                <path class="st3" d="M95.21,65.38l9.04,27.83-23.67-17.2h29.26l-23.67,17.2,9.04-27.83Z"/>
              </g>
              <g id="s33" data-name="s">
                <path class="st3" d="M95.21,119.23l9.04,27.83-23.67-17.2h29.26l-23.67,17.2,9.04-27.83Z"/>
              </g>
              <g id="s34" data-name="s">
                <path class="st3" d="M95.21,173.08l9.04,27.83-23.67-17.2h29.26l-23.67,17.2,9.04-27.83Z"/>
              </g>
            </g>
            <g id="s35" data-name="s">
              <path class="st3" d="M95.21,226.92l9.04,27.83-23.67-17.2h29.26l-23.67,17.2,9.04-27.83Z"/>
            </g>
          </g>
          <g id="s47" data-name="s4">
            <g id="s36" data-name="s">
              <path class="st3" d="M126.87,38.46l9.04,27.83-23.67-17.2h29.26l-23.67,17.2,9.04-27.83Z"/>
            </g>
            <g id="s37" data-name="s">
              <path class="st3" d="M126.87,92.31l9.04,27.83-23.67-17.2h29.26l-23.67,17.2,9.04-27.83Z"/>
            </g>
            <g id="s38" data-name="s">
              <path class="st3" d="M126.87,146.15l9.04,27.83-23.67-17.2h29.26l-23.67,17.2,9.04-27.83Z"/>
            </g>
            <g id="s39" data-name="s">
              <path class="st3" d="M126.87,200l9.04,27.83-23.67-17.2h29.26l-23.67,17.2,9.04-27.83Z"/>
            </g>
          </g>
        </g>
      </g>
      <g id="s94" data-name="s9">
        <g id="s54" data-name="s5">
          <g id="s48" data-name="s4">
            <g id="s40" data-name="s">
              <path class="st3" d="M158.54,11.54l9.04,27.83-23.67-17.2h29.26l-23.67,17.2,9.04-27.83Z"/>
            </g>
            <g id="s49" data-name="s">
              <path class="st3" d="M158.54,65.38l9.04,27.83-23.67-17.2h29.26l-23.67,17.2,9.04-27.83Z"/>
            </g>
            <g id="s50" data-name="s">
              <path class="st3" d="M158.54,119.23l9.04,27.83-23.67-17.2h29.26l-23.67,17.2,9.04-27.83Z"/>
            </g>
            <g id="s55" data-name="s">
              <path class="st3" d="M158.54,173.08l9.04,27.83-23.67-17.2h29.26l-23.67,17.2,9.04-27.83Z"/>
            </g>
          </g>
          <g id="s56" data-name="s">
            <path class="st3" d="M158.54,226.92l9.04,27.83-23.67-17.2h29.26l-23.67,17.2,9.04-27.83Z"/>
          </g>
        </g>
        <g id="s410" data-name="s4">
          <g id="s57" data-name="s">
            <path class="st3" d="M190.21,38.46l9.04,27.83-23.67-17.2h29.26l-23.67,17.2,9.04-27.83Z"/>
          </g>
          <g id="s58" data-name="s">
            <path class="st3" d="M190.21,92.31l9.04,27.83-23.67-17.2h29.26l-23.67,17.2,9.04-27.83Z"/>
          </g>
          <g id="s59" data-name="s">
            <path class="st3" d="M190.21,146.15l9.04,27.83-23.67-17.2h29.26l-23.67,17.2,9.04-27.83Z"/>
          </g>
          <g id="s60" data-name="s">
            <path class="st3" d="M190.21,200l9.04,27.83-23.67-17.2h29.26l-23.67,17.2,9.04-27.83Z"/>
          </g>
        </g>
      </g>
      <g id="s510" data-name="s5">
        <g id="s411" data-name="s4">
          <g id="s61" data-name="s">
            <path class="st3" d="M221.87,11.54l9.04,27.83-23.67-17.2h29.26l-23.67,17.2,9.04-27.83Z"/>
          </g>
          <g id="s62" data-name="s">
            <path class="st3" d="M221.87,65.38l9.04,27.83-23.67-17.2h29.26l-23.67,17.2,9.04-27.83Z"/>
          </g>
          <g id="s63" data-name="s">
            <path class="st3" d="M221.87,119.23l9.04,27.83-23.67-17.2h29.26l-23.67,17.2,9.04-27.83Z"/>
          </g>
          <g id="s64" data-name="s">
            <path class="st3" d="M221.87,173.08l9.04,27.83-23.67-17.2h29.26l-23.67,17.2,9.04-27.83Z"/>
          </g>
        </g>
        <g id="s65" data-name="s">
          <path class="st3" d="M221.87,226.92l9.04,27.83-23.67-17.2h29.26l-23.67,17.2,9.04-27.83Z"/>
        </g>
      </g>
    </g>
  </g>
</svg>