<svg width="14" height="19" viewBox="0 0 14 19" fill="none" xmlns="http://www.w3.org/2000/svg">
<g clip-path="url(#clip0_2_1602)">
<path d="M9.18761 18.0943C8.63344 19.2121 5.6231 19.3549 4.90269 18.1866C4.47719 17.4962 3.78926 16.2755 3.63957 15.5939L2.99559 12.6624C0.245133 10.7354 -0.705869 7.33732 0.538141 4.23951C1.68087 1.39395 4.76574 -0.352202 8.06016 0.0599969C11.0399 0.432999 13.1177 2.66153 13.7547 5.09489C14.556 8.1573 13.3394 10.9504 10.9023 12.7168C10.6749 13.4318 10.7297 14.9858 10.4316 15.5864L9.18761 18.0943ZM9.53986 13.177L11.6559 10.8663C13.4878 8.86537 13.7006 5.88957 12.3151 3.64587C11.0482 1.59499 8.63344 0.451965 6.03077 0.855312C3.38732 1.26498 1.5229 3.22356 0.97192 5.46094C-0.189283 10.1747 4.90269 13.2617 4.83644 13.263L9.53986 13.177ZM9.41055 15.3828C9.62266 15.3815 9.91822 14.5508 9.76534 14.4022C9.66343 14.3036 9.23411 14.0488 9.09843 14.0495L4.853 14.0823C4.66318 14.0836 4.25234 14.5906 4.16188 14.7575C4.0708 14.9257 4.68166 15.4055 4.88549 15.4049L9.41055 15.3828ZM9.06467 16.309C7.65186 16.1623 6.09701 16.1572 4.91351 16.3115C5.02053 17.7871 6.08045 18.0772 7.17413 18.057C8.05889 18.0406 8.96212 17.538 9.06467 16.309Z" fill="white"/>
<path d="M12 7.11799L11.3491 8C11.6074 5.56567 10.5896 4.30392 9 3.01908C10.8805 2.74902 11.8149 5.40658 12 7.11799Z" fill="white"/>
</g>
<defs>
<clipPath id="clip0_2_1602">
<rect width="14" height="19" fill="white"/>
</clipPath>
</defs>
</svg>
