<svg width="15" height="13" viewBox="0 0 15 13" fill="none" xmlns="http://www.w3.org/2000/svg">
<g clip-path="url(#clip0_2_1606)">
<path d="M13.0959 7.18183C12.8601 11.2741 7.70968 10.5161 6.37394 10.7709C5.21325 10.9926 4.13814 12.003 2.85103 12.4426L2.5374 10.1548C0.254433 9.28343 0.0769498 7.31021 0.00595671 5.2164C-0.077679 2.73553 0.699355 0.270705 3.61104 0.0805797C5.43012 -0.0385526 7.48503 -0.0176437 9.40039 0.0912773C11.273 0.197767 12.9802 1.63368 13.0925 3.53931C13.165 4.76856 13.165 5.97641 13.0959 7.18183ZM6.38269 10.0167L9.60948 9.83873C11.1203 9.75558 12.4351 8.52341 12.4166 6.92655L12.3767 3.50819C12.3602 2.09027 10.9238 0.79586 9.52681 0.785648L3.71851 0.741399C2.4168 0.731674 1.05238 1.80192 0.856415 3.13523C0.438237 5.98176 0.4183 8.821 3.23323 9.83046L3.56388 11.4103C4.44886 11.0364 5.53272 10.0639 6.38269 10.0167Z" fill="white"/>
<path d="M14.5398 12.8685C11.3641 11.0879 10.2861 13.0689 7.28833 11.1253L10.3887 11.3402L13.8255 11.6091C14.4329 9.6189 14.41 7.49445 13.6991 5.40259C15.4117 6.30605 14.9925 8.28948 14.8496 9.73463L14.5398 12.8685Z" fill="white"/>
<path d="M6.5 5.85242C6.77614 5.85242 7 5.62856 7 5.35242C7 5.07628 6.77614 4.85242 6.5 4.85242C6.22386 4.85242 6 5.07628 6 5.35242C6 5.62856 6.22386 5.85242 6.5 5.85242Z" fill="#D9D9D9"/>
<path d="M9.5 5.85242C9.77614 5.85242 10 5.62856 10 5.35242C10 5.07628 9.77614 4.85242 9.5 4.85242C9.22386 4.85242 9 5.07628 9 5.35242C9 5.62856 9.22386 5.85242 9.5 5.85242Z" fill="#D9D9D9"/>
<path d="M3.5 5.85242C3.77614 5.85242 4 5.62856 4 5.35242C4 5.07628 3.77614 4.85242 3.5 4.85242C3.22386 4.85242 3 5.07628 3 5.35242C3 5.62856 3.22386 5.85242 3.5 5.85242Z" fill="#D9D9D9"/>
</g>
<defs>
<clipPath id="clip0_2_1606">
<rect width="15" height="13" fill="white"/>
</clipPath>
</defs>
</svg>
