<?xml version="1.0" encoding="UTF-8"?>
<svg id="Layer_1" data-name="Layer 1" xmlns="http://www.w3.org/2000/svg" viewBox="0 0 30 400">
  <defs>
    <style>
      .cls-1 {
        fill: none;
        stroke: #08fcea;
        stroke-miterlimit: 10;
        stroke-width: .75px;
      }
    </style>
  </defs>
  <path class="cls-1" d="M22.12,376.37c-1.99-1.08-4.38-1.62-7.15-1.62s-5.17.54-7.16,1.63c-1.99,1.09-3.52,2.63-4.59,4.62-1.07,1.99-1.6,4.36-1.6,7.11v10.17h26.68v-10.28c0-2.71-.53-5.06-1.59-7.04-1.06-1.98-2.59-3.51-4.58-4.59ZM7.78,391.05v-2.54c0-1.4.21-2.58.64-3.54.42-.96,1.16-1.69,2.2-2.19,1.04-.5,2.5-.75,4.36-.75s3.3.25,4.34.73c1.04.49,1.78,1.2,2.19,2.14.42.94.63,2.07.63,3.39v2.76H7.78Z"/>
  <path class="cls-1" d="M15.51,351.63c-1.31-.85-2.92-1.27-4.83-1.27s-3.51.42-4.86,1.24c-1.35.83-2.39,1.99-3.12,3.47s-1.08,3.22-1.08,5.2v11.5h26.68v-7.23h-8.81v-2.51l8.81-4.69v-7.88l-9.96,5.45c-.66-1.39-1.6-2.49-2.83-3.28ZM7.42,364.54v-2.54c0-.86.11-1.59.34-2.2.23-.61.58-1.07,1.06-1.4.48-.32,1.1-.48,1.86-.48s1.38.16,1.84.48c.47.32.81.79,1.02,1.4s.32,1.34.32,2.2v2.54h-6.45Z"/>
  <rect class="cls-1" x="1.62" y="340.05" width="26.68" height="7.23"/>
  <path class="cls-1" d="M1.62,318.09l10.35,2.95c2.24.65,4.53,1.23,6.85,1.75,1.14.26,2.32.5,3.47.76-1.16.27-2.33.53-3.47.8-2.32.56-4.6,1.18-6.85,1.84l-10.35,3.1v8.2l26.68-8.95v-9.88l-26.68-8.67v8.09Z"/>
  <polygon class="cls-1" points="22.46 300.22 17.66 300.22 17.66 289.23 11.97 289.23 11.97 300.22 7.45 300.22 7.45 288.23 1.62 288.23 1.62 307.46 28.3 307.46 28.3 288.3 22.46 288.3 22.46 300.22"/>
  <path class="cls-1" d="M15.51,264.84c-1.31-.85-2.92-1.27-4.83-1.27s-3.51.42-4.86,1.24c-1.35.83-2.39,1.99-3.12,3.47s-1.08,3.22-1.08,5.2v11.5h26.68v-7.23h-8.81v-2.51l8.81-4.69v-7.88l-9.96,5.45c-.66-1.39-1.6-2.49-2.83-3.28ZM7.42,277.75v-2.54c0-.86.11-1.59.34-2.2.23-.61.58-1.07,1.06-1.4.48-.32,1.1-.48,1.86-.48s1.38.16,1.84.48c.47.32.81.79,1.02,1.4s.32,1.34.32,2.2v2.54h-6.45Z"/>
  <path class="cls-1" d="M5.29,259.11c1.27.92,2.75,1.38,4.45,1.38,2.09,0,3.74-.68,4.95-2.03s2.07-3.21,2.57-5.56l.57-2.69c.2-.99.43-1.78.68-2.36.25-.58.53-1.01.83-1.26.3-.26.66-.39,1.07-.39.44,0,.83.13,1.17.4s.61.67.8,1.19c.19.53.29,1.18.29,1.95,0,.93-.14,1.73-.43,2.39-.29.66-.71,1.18-1.27,1.54-.56.36-1.25.57-2.06.62v6.88c2.23-.01,4.06-.5,5.5-1.45,1.43-.95,2.49-2.29,3.18-4.02.69-1.72,1.03-3.75,1.03-6.06s-.32-4.19-.95-5.8c-.63-1.61-1.56-2.85-2.78-3.72s-2.71-1.3-4.47-1.3c-1.01,0-1.95.16-2.81.47s-1.63.81-2.32,1.49-1.29,1.54-1.8,2.6c-.51,1.06-.92,2.32-1.24,3.79l-.47,2.18c-.18.84-.38,1.52-.62,2.05s-.51.92-.82,1.16c-.32.24-.68.37-1.1.37-.39,0-.75-.11-1.06-.34-.31-.23-.55-.58-.73-1.06-.17-.48-.26-1.09-.26-1.83,0-1.17.24-2.04.73-2.62s1.16-.9,2.03-.96v-6.95c-1.74.01-3.27.44-4.58,1.3s-2.32,2.07-3.04,3.64c-.72,1.57-1.08,3.44-1.08,5.6s.35,3.98,1.07,5.6,1.7,2.89,2.97,3.81Z"/>
</svg>