<svg width="15" height="18" viewBox="0 0 15 18" fill="none" xmlns="http://www.w3.org/2000/svg">
<g clip-path="url(#clip0_2_1598)">
<path d="M14.8439 12.1504C14.195 15.6386 11.2604 17.8578 7.62485 17.9947C4.39616 18.1165 1.57926 16.2872 0.469529 13.5904C-0.714956 10.711 0.441341 7.75727 2.8195 5.6119C4.4605 4.13151 5.37904 2.39883 4.80243 0C8.58322 0.890342 10.9387 3.42381 11.5913 7.00156L13.7182 5.77932C14.8586 7.64312 15.2508 9.96401 14.8439 12.1504ZM13.9977 12.3413C14.4303 10.5822 14.1043 8.41873 13.543 6.92781C12.3818 7.45756 11.6575 7.77541 10.6862 8.1319C10.8848 4.62849 8.94046 2.28234 5.7081 1.18185C5.72771 6.85171 -0.686769 7.05249 0.963422 12.6258C1.84213 15.5924 4.73686 17.4328 7.73882 17.273C10.6501 17.1179 13.2606 15.3383 13.9977 12.3413Z" fill="white"/>
<path d="M6.60563 7.77484C7.33911 7.39728 4.98424 10.3581 6.64423 12.418C7.63876 13.6519 9.18049 13.6987 10.9906 13.8375C9.31407 15.0474 7.2233 14.3456 5.99653 13.008C4.85065 11.7583 4.78571 8.71143 6.60563 7.77484Z" fill="white"/>
</g>
<defs>
<clipPath id="clip0_2_1598">
<rect width="15" height="18" fill="white"/>
</clipPath>
</defs>
</svg>
