<?xml version="1.0" encoding="UTF-8"?>
<svg id="_x31_080_x__x_1080_px_Logo_Set_1" xmlns="http://www.w3.org/2000/svg" xmlns:xlink="http://www.w3.org/1999/xlink" version="1.1" viewBox="0 0 348.55 302.68">
  <!-- Generator: Adobe Illustrator 30.0.0, SVG Export Plug-In . SVG Version: 2.1.1 Build 123)  -->
  <defs>
    <style>
      .st0 {
        fill: url(#linear-gradient);
      }
    </style>
    <linearGradient id="linear-gradient" x1="38.58" y1="222.1" x2="231.93" y2="28.74" gradientUnits="userSpaceOnUse">
      <stop offset="0" stop-color="#ff006e"/>
      <stop offset=".13" stop-color="#fe1358"/>
      <stop offset=".39" stop-color="#fd3532"/>
      <stop offset=".63" stop-color="#fd4e16"/>
      <stop offset=".84" stop-color="#fd5d05"/>
      <stop offset="1" stop-color="#fd6300"/>
    </linearGradient>
  </defs>
  <g id="Text3" data-name="Text">
    <path class="st0" d="M131.59,149.38c-39.63,0-71.29,30.16-71.29,68.05,0,35.89,27.42,62.56,64.56,62.56,40.13,0,71.79-29.91,71.79-67.8,0-35.89-27.92-62.81-65.06-62.81ZM154.96,232.62c-9.09,12.64-25.22,16.33-39.08,8.99-.91.6-1.74,1.3-2.68,1.87-3.97,2.4-9.34,3.58-13.9,2.73-1-.19-2.97-.47-3.22-1.63-.17-.83.16-1.23.71-1.77.57-.56,1.28-1.11,1.84-1.68,6.91-7,5.99-9.74,3.84-12.1-1.28-1.4-3.53-4.84-4.3-10.14-2.75-18.9,11.37-35.54,30.36-36.21l1.39-.03c25.18.52,39.96,29.23,25.04,49.98ZM147.31,138.47c.03.9.07,1.89.13,2.92,1.88-.08,3.77-.17,5.68.13.31.05.64.11.96.17,0-18.17-.7-36.5-.98-54.7-.28-17.87.47-36.5-.43-54.27-.14-2.7.12-9.14-4.46-7.93-3.08.81-2.58,8.75-2.65,11.54-.14,5.93.61,11.89.21,17.83-.29.52-1.55.55-2.1.47-5.27-.7-11.42-2.69-16.86-3.45-2.91-.41-5.42-1.01-5.61,2.58-.23,4.55,2.06,12.39.79,16.5-.18.57-.24,1.44-.92,1.6l-26.02-2.18-1.97-17.61c.08-2.32.73-2.55,2.81-2.78,5.16-.56,13.14.93,18.59,1.06.87.02,5.77-.04,6.01-.35.3-.91.4-1.95.38-2.9-.08-3.73-.75-10.48-1.34-14.21-.18-1.15-.42-3.67-1.48-4.16l-26.69-.76c-.63.54-.81,1.26-.88,2.04-.22,2.46,1.25,8.09,1.53,10.93.24,2.48.51,5.36.33,7.78-.86,1.11-25.34.28-28.57,0-.13-3.14-.74-20.26-2.5-21.53l-21.68-4.36c-1.45-.02-3.22-.66-3.93.9l1.71,18.3c.46,1.65,1.81,2.39,3.38,2.91,7.6,2.52,16.14,2.42,23.81,4.61l-.49,3.63,1.64,16.96,4.09.92,24.75-1.05c.54,2.47,2.7,20.19,1.81,20.78-9.16-.61-18.34-.12-27.45.62-.83.64-.79,1.52-.89,2.42-.29,2.6,1.34,9.76,1.8,12.8.11.73-.16,2.84-.02,3.02.3.39,3.76,1.48,4.55,1.58,1.97.25,6.61-.44,8.85-.4,3.32.06,12.71.94,15.26.08.91-.31.46-.43.48-.99.03-1.23.04-2.8-.03-4.02-.15-2.82-2.77-13.45-.64-14.96l16.59,1.17c1.88.53,8.86.95,9.51,2.67.37.99.27,7.27.44,9.01.14,1.45.95,10.2,1.27,10.64,1.06,1.45,8.74,3.95,10.94,5.06,2.09,1.06,6.42,3.42,8.29,4.66,3.21,2.13,1.88,10.7,1.98,14.32ZM145.63,99.64l-21.59-6.29-.99-21.39c6.27,1.77,13.91,2.49,20,4.37.97.3,2.95.98,3.37,1.87.21.46-.4,8.38-.38,9.98.03,2.21,1.31,10.3-.41,11.45ZM318.18,120.43c-1.35-.72-2.66-2.07-4.18-2.92-4.16-2.31-4.93-3.33-8.64-.23-3.42,2.85-7.28,7.22-10.62,10.38-.83.78-1.2,2.66-2.51,2.13-.66-.27-2.82-1.86-3.57-2.41-4.61-3.46-10.14-8.06-14.54-11.84-1.07-.92-2.53-2.17-3.21-3.38.08-1.62,11.79-10.85,13.65-13.33.45-.61.93-1.14.75-1.97l-20.97-16.16c-.89-.22-2.89,1.21-3.65,1.86-2.71,2.31-8.6,8.04-10.87,10.69-.51.6-1.3,1.42-1.32,2.21-.01.42,3.67,3.5,4.38,4.05,4.26,3.33,11.35,7.19,14.95,10.86,3.29,3.36-2.71,6.16-5.21,8.6-.7.69-1.05,1.65-1.76,2.32-1.85,1.76-4.05,3.33-5.77,5.24l-21.38-14.66c-2-2.74,12.92-13.1,13-16.35.04-1.95-6.01-3.87-7.41-4.68-2.66-1.52-5.08-3.38-7.86-4.85-2.35-1.24-7.76-1.82-5.39-5.4l16.61-19.35c.97-2.59-1.05-5.06-3.88-4.16-2.02.65-6.29,6.66-8,8.55-12.17,13.48-24.38,27.15-36.31,40.66-10.58,11.97-21.27,25.69-32.3,37.44.27.1.56.18.83.29,1.64.64,3.17,1.43,4.61,2.33,1.84-2.03,3.65-3.97,5.22-5.62,2.32-2.42,4.02-4.72,7.89-4.09,2.53.41,7.08,1.17,9.47,1.74,3.03.72,8.76,3.69,11.71,2.99.28-.07,3.73-3.12,4.38-3.71,3.46-3.16,6.67-6.83,9.84-10.28,2.11-1.19,9.58,4.82,11.49,6.02,3.81,2.41,7.68,4.66,11.37,7.29.48.61-1.24,2.82-1.7,3.33-1.54,1.74-12.35,10.38-12.09,11.67,5.45,4.86,11.11,9.59,17.03,13.94.61.45.88,1.37,1.45,1.75.66.44,4.01,1.77,4.51,1.66.2-.04,1.43-1.84,1.96-2.33,2.37-2.18,8.29-6.48,9.8-8.68.55-.8,1.04-1.35.9-2.42-.18-1.33-17.95-16.01-20.64-17.71,4.26-5.49,9.76-10.27,15.05-14.79l18.28,16.33,3.76,1.88c4.61-5.17,10.39-9.54,14.4-15.05l22.91,12.18,2.87-.91c4.19-4.44,8.79-8.76,13.43-12.93.9-2.47-10.6-7.06-12.7-8.19ZM231.17,112.57l-13.88,13.9-22.66-9.42c-.08-2.46,2.37-3.68,3.68-5.27,2.69-3.27,5.37-7.28,8.74-10.01,2.97-2.4,4.46-1.35,7.84.1,5.57,2.38,11.56,6.29,17.18,8.85l-.92,1.85ZM39.04,91.16c.07-5.73-.5-11.64-.15-17.36.09-1.44.03-4.97,1.11-5.75l25.45,3.31,2.4,18.58-.55,1.5c-9.42.24-18.92,1.56-28.26-.28ZM277.05,146.37l21.31,13.46c.22.75-.32,1.48-.66,2.12-1.59,2.9-5.92,6.91-8.18,9.5-1.29,1.47-3.87,6.11-6.01,6.34-2.92.31-18.28-14.63-21.45-17.15-.21-.64.19-1.04.56-1.49,1.19-1.47,4.61-3.84,6.09-5.3s6.52-7.65,8.34-7.46Z"/>
  </g>
</svg>