<?xml version="1.0" encoding="UTF-8"?>
<svg id="_x31_080_x__x_1080_px_Logo_Set_1" xmlns="http://www.w3.org/2000/svg" version="1.1" viewBox="0 0 614.4 259.64">
  <!-- Generator: Adobe Illustrator 30.0.0, SVG Export Plug-In . SVG Version: 2.1.1 Build 123)  -->
  <defs>
    <style>
      .st0 {
        fill: none;
      }

      .st1 {
        fill: #050706;
      }
    </style>
  </defs>
  <g id="Text3" data-name="Text">
    <path class="st0" d="M341.96,147.25c-8.13,0-14.19,6.89-14.19,16.12,0,8.27,4.96,13.64,12.4,13.64,8.41,0,14.47-6.61,14.47-15.71,0-8.41-5.1-14.05-12.68-14.05Z"/>
    <path class="st0" d="M262.08,147.27c-8.41,0-14.61,6.48-14.61,15.57,0,8.54,5.24,14.33,12.82,14.33,8.27,0,14.47-7.03,14.47-16.4,0-8.13-5.1-13.5-12.68-13.5Z"/>
    <path class="st0" d="M454.41,144.38c-6.34,0-11.3,4.13-13.37,10.75h24.11c0-6.48-4.27-10.75-10.75-10.75Z"/>
    <path class="st0" d="M95.18,147.29c-8.13,0-14.19,6.89-14.19,16.12,0,8.27,4.96,13.64,12.4,13.64,8.41,0,14.47-6.61,14.47-15.71,0-8.41-5.1-14.05-12.68-14.05Z"/>
    <path class="st1" d="M175.04,126.07c-7.85,0-14.05,3.03-18.74,7.3l.96-5.65h-21.63l-12.87,70.45h23.7l7.91-42.48c1.1-6.48,5.65-9.37,10.47-9.37,5.37,0,9.37,3.17,9.37,8.82,0,.96-.14,2.2-.55,4.55l-7.22,38.48h23.7l7.64-40.83c.55-3.03.83-5.51.83-7.85,0-14.05-9.78-23.42-23.56-23.42Z"/>
    <path class="st1" d="M269.52,126.05c-7.72,0-14.19,2.62-18.74,7.72l1.1-6.06h-21.63l-16.54,93.7h23.7l5.37-30.59c4.13,4.96,10.61,7.44,19.29,7.44,21.08,0,36.93-17.22,36.93-39.82,0-18.6-12.54-32.38-29.49-32.38ZM260.29,177.17c-7.58,0-12.82-5.79-12.82-14.33,0-9.09,6.2-15.57,14.61-15.57,7.58,0,12.68,5.37,12.68,13.5,0,9.37-6.2,16.4-14.47,16.4Z"/>
    <path class="st1" d="M342.92,126.03c-21.91,0-39.41,16.67-39.41,37.62,0,19.84,15.16,34.59,35.69,34.59,22.19,0,39.69-16.54,39.69-37.48,0-19.84-15.43-34.72-35.96-34.72ZM340.17,177.01c-7.44,0-12.4-5.37-12.4-13.64,0-9.23,6.06-16.12,14.19-16.12,7.58,0,12.68,5.65,12.68,14.05,0,9.09-6.06,15.71-14.47,15.71Z"/>
    <path class="st1" d="M456.34,124.8c-21.63,0-38.86,16.81-38.86,38.17,0,20.26,14.88,34.04,36.52,34.04,11.44,0,20.26-2.76,28.11-8.82l-7.58-15.98c-6.34,3.58-12.26,5.24-18.46,5.24-7.85,0-12.81-2.76-14.88-8.41h43.54c1.79-4.27,2.76-9.09,2.76-14.05,0-17.64-12.95-30.18-31.14-30.18ZM441.05,153.88c2.07-6.61,7.03-10.75,13.37-10.75s10.75,4.27,10.75,10.75h-24.11Z"/>
    <path class="st1" d="M405.94,196.51h-23.25c.07-.45,6.9-62.45,8.35-73.03h-28.23s3.16-19.19,3.16-19.19h23.62c5.57.3,15.45-1.14,20.75,6.54,3.45,5,4.02,8.72,2.63,18.59-2.23,15.88-6.97,66.64-7.03,67.09ZM386.89,127.63h0Z"/>
    <path class="st1" d="M88.67,126.07c-21.91,0-39.41,16.67-39.41,37.62,0,19.84,15.16,34.59,35.69,34.59,22.19,0,39.69-16.54,39.69-37.48,0-19.84-15.43-34.72-35.96-34.72ZM101.58,172.08c-5.02,6.99-13.94,9.03-21.6,4.97-.5.33-.96.72-1.48,1.03-2.19,1.33-5.16,1.98-7.69,1.51-.55-.1-1.64-.26-1.78-.9-.1-.46.09-.68.39-.98.31-.31.71-.61,1.02-.93,3.82-3.87,3.31-5.38,2.12-6.69-.71-.78-1.95-2.68-2.38-5.61-1.52-10.45,6.28-19.65,16.78-20.02l.77-.02c13.92.29,22.09,16.16,13.84,27.63Z"/>
    <g id="YyFA8I.tif">
      <g>
        <path d="M458.12,114.19c.02.68.06,1.43.1,2.22,1.43-.06,2.87-.13,4.32.1.24.04.49.09.73.13,0-13.81-.53-27.74-.74-41.56-.21-13.58.36-27.74-.32-41.24-.1-2.05.09-6.94-3.39-6.02-2.34.62-1.96,6.65-2.01,8.77-.1,4.51.46,9.04.16,13.55-.22.39-1.18.41-1.59.36-4-.54-8.68-2.04-12.81-2.62-2.21-.31-4.12-.76-4.26,1.96-.18,3.46,1.56,9.42.6,12.54-.13.44-.18,1.1-.7,1.22l-19.77-1.66-1.49-13.38c.06-1.76.55-1.94,2.14-2.11,3.92-.42,9.99.71,14.13.8.66.02,4.39-.03,4.57-.27.23-.69.31-1.48.29-2.21-.06-2.83-.57-7.96-1.02-10.8-.14-.88-.32-2.79-1.12-3.16l-20.28-.58c-.48.41-.62.96-.67,1.55-.17,1.87.95,6.15,1.16,8.31.18,1.88.39,4.07.25,5.91-.65.84-19.26.21-21.71,0-.1-2.39-.56-15.39-1.9-16.36l-16.47-3.31c-1.1-.01-2.44-.5-2.99.69l1.3,13.91c.35,1.26,1.38,1.81,2.57,2.21,5.78,1.92,12.27,1.84,18.09,3.5l-.37,2.76,1.25,12.89,3.1.7,18.81-.8c.41,1.88,2.05,15.34,1.38,15.79-6.96-.46-13.94-.09-20.86.47-.63.49-.6,1.15-.68,1.84-.22,1.98,1.02,7.41,1.37,9.73.08.56-.13,2.16-.02,2.29.23.29,2.86,1.13,3.46,1.2,1.5.19,5.02-.34,6.72-.31,2.52.04,9.66.71,11.59.06.69-.23.35-.33.36-.76.03-.94.03-2.13-.02-3.06-.11-2.14-2.1-10.22-.48-11.37l12.61.89c1.43.41,6.73.72,7.23,2.03.28.75.21,5.52.34,6.85.11,1.1.72,7.75.97,8.08.8,1.1,6.64,3,8.31,3.85,1.59.81,4.88,2.6,6.3,3.54,2.44,1.62,1.43,8.13,1.51,10.88ZM456.84,84.68l-16.4-4.78-.75-16.25c4.76,1.34,10.57,1.89,15.2,3.32.73.23,2.24.75,2.56,1.42.16.35-.3,6.37-.29,7.59.02,1.68.99,7.83-.31,8.7Z"/>
        <path d="M587.96,100.47c-1.02-.55-2.02-1.58-3.17-2.22-3.16-1.75-3.74-2.53-6.57-.18-2.6,2.17-5.53,5.49-8.07,7.89-.63.6-.91,2.02-1.91,1.62-.5-.2-2.15-1.41-2.71-1.83-3.51-2.63-7.71-6.12-11.05-9-.81-.7-1.92-1.65-2.44-2.57.06-1.23,8.96-8.25,10.37-10.13.34-.46.71-.87.57-1.5l-15.93-12.28c-.67-.17-2.19.92-2.77,1.42-2.06,1.76-6.53,6.11-8.26,8.13-.39.45-.99,1.08-1,1.68,0,.32,2.79,2.66,3.33,3.08,3.24,2.53,8.63,5.46,11.36,8.25,2.5,2.55-2.06,4.68-3.96,6.54-.53.52-.8,1.25-1.34,1.76-1.41,1.33-3.07,2.53-4.39,3.98l-16.24-11.14c-1.52-2.09,9.82-9.95,9.88-12.43.03-1.48-4.56-2.94-5.63-3.55-2.02-1.16-3.86-2.56-5.98-3.69-1.79-.95-5.9-1.38-4.09-4.1l12.62-14.71c.74-1.97-.8-3.85-2.95-3.16-1.54.49-4.78,5.06-6.08,6.49-9.25,10.24-18.52,20.63-27.59,30.89-8.04,9.09-16.16,19.52-24.54,28.45.21.07.42.14.63.22,1.25.49,2.41,1.09,3.5,1.77,1.4-1.55,2.77-3.02,3.97-4.27,1.77-1.84,3.05-3.58,6-3.11,1.92.31,5.38.89,7.19,1.32,2.3.55,6.66,2.8,8.9,2.27.21-.05,2.83-2.37,3.33-2.82,2.63-2.4,5.07-5.19,7.48-7.81,1.61-.9,7.28,3.66,8.73,4.58,2.89,1.83,5.84,3.54,8.64,5.54.36.47-.95,2.14-1.29,2.53-1.17,1.32-9.38,7.89-9.19,8.87,4.14,3.69,8.44,7.29,12.94,10.59.46.34.67,1.04,1.1,1.33.5.33,3.05,1.34,3.42,1.26.15-.03,1.09-1.4,1.49-1.77,1.8-1.65,6.3-4.92,7.44-6.6.42-.61.79-1.02.68-1.84-.13-1.01-13.64-12.16-15.68-13.45,3.24-4.17,7.42-7.8,11.43-11.24l13.89,12.41,2.86,1.43c3.5-3.93,7.9-7.25,10.95-11.43l17.41,9.26,2.18-.69c3.18-3.37,6.68-6.66,10.2-9.82.69-1.88-8.06-5.36-9.65-6.22ZM521.85,94.51l-10.54,10.56-17.22-7.16c-.06-1.87,1.8-2.8,2.8-4.01,2.05-2.49,4.08-5.53,6.64-7.6,2.26-1.83,3.39-1.03,5.96.07,4.23,1.81,8.78,4.78,13.05,6.72l-.7,1.41Z"/>
        <path d="M375.85,78.23c.06-4.36-.38-8.84-.12-13.19.07-1.09.02-3.78.85-4.37l19.34,2.51,1.83,14.12-.42,1.14c-7.16.18-14.38,1.18-21.47-.21Z"/>
        <path d="M556.71,120.19l16.19,10.22c.16.57-.24,1.13-.51,1.61-1.21,2.21-4.5,5.25-6.22,7.22-.98,1.12-2.94,4.64-4.57,4.82-2.22.23-13.89-11.12-16.3-13.03-.16-.49.15-.79.42-1.14.91-1.12,3.5-2.92,4.63-4.03s4.95-5.81,6.34-5.67Z"/>
      </g>
    </g>
    <path d="M157.55,58.7l-33.35,56.94h-6.12l-11.33-26.58-17.03,26.58h-6.12l-21.36-56.94h20.24l8.73,25.91,15.19-25.71h6.12l11.03,24.93,13.77-25.13h20.24Z"/>
    <path d="M214.15,80.43l-7.98,35.02h-19.13l7.4-32.24c1.05-5-1.72-8.23-6.39-8.23s-8.69,3.22-9.74,8.23l-7.39,32.24h-19.13l18.33-84.17h19.13l-6.67,31.69c4.35-3.23,9.77-5.23,15.56-5.23,12.34,0,18.9,9.01,16.02,22.69Z"/>
    <path d="M218.24,86.88c3.73-16.35,19.88-29.14,36.89-29.14s27.42,12.9,23.72,29.14c-3.7,16.24-19.99,29.14-37,29.14s-27.33-12.79-23.6-29.14ZM259.28,86.88c1.52-6.67-1.92-11.57-8.04-11.57s-11.85,4.67-13.42,11.57c-1.57,6.9,1.7,11.57,8.15,11.57s11.79-4.89,13.31-11.57Z"/>
    <path d="M291.44,56.94h8.54c2.63,0,4.38,2.71,3.3,5.1l-9,14.81c-.58,1.3-1.87,2.13-3.3,2.13h-2.92c-2.32,0-4.04-2.16-3.53-4.42l3.38-14.81c.38-1.65,1.84-2.81,3.53-2.81Z"/>
    <path d="M293.51,105.34l11.48-11.34c3.55,4.45,8.33,6.89,13.77,6.89,2.67,0,5.02-.56,5.45-2.45.3-1.33-.68-1.89-2.59-2.78l-5.64-2.56c-9.18-4.12-14.15-8.67-12.04-17.9,2.54-11.12,12.77-17.46,25.56-17.46,8.12,0,14.9,2.45,19.06,8.12l-11.67,11.68c-2.96-3.11-6.58-4.78-10.7-4.78-2.45,0-4.02.56-4.37,2.11-.28,1.22.77,2,3.1,3l5.05,2.22c8.98,4,14.39,8.12,12.25,17.46-2.66,11.68-14,18.46-27.23,18.46-9.9,0-17.82-3.78-21.48-10.68Z"/>
  </g>
</svg>