<?xml version="1.0" encoding="UTF-8"?>
<svg id="_x31_080_x__x_1080_px_Logo_Set_1" xmlns="http://www.w3.org/2000/svg" version="1.1" viewBox="0 0 614.4 259.64">
  <!-- Generator: Adobe Illustrator 30.0.0, SVG Export Plug-In . SVG Version: 2.1.1 Build 123)  -->
  <defs>
    <style>
      .st0 {
        fill: #fff;
      }
    </style>
  </defs>
  <g id="Text3" data-name="Text">
    <path class="st0" d="M160.45,144.2c-8.13,0-14.54,3.14-19.39,7.56l1-5.84h-22.38l-13.32,72.88h24.52l8.18-43.95c1.14-6.7,5.85-9.69,10.83-9.69,5.56,0,9.69,3.28,9.69,9.12,0,1-.14,2.28-.57,4.7l-7.47,39.81h24.52l7.9-42.24c.57-3.14.86-5.7.86-8.13,0-14.54-10.12-24.23-24.38-24.23Z"/>
    <path class="st0" d="M258.2,144.18c-7.98,0-14.68,2.71-19.39,7.98l1.14-6.27h-22.38l-17.11,96.93h24.52l5.56-31.65c4.28,5.13,10.98,7.7,19.96,7.7,21.81,0,38.2-17.82,38.2-41.2,0-19.24-12.97-33.5-30.51-33.5ZM248.64,197.06c-7.84,0-13.26-5.99-13.26-14.82,0-9.41,6.42-16.11,15.11-16.11,7.84,0,13.11,5.56,13.11,13.97,0,9.69-6.41,16.96-14.97,16.96Z"/>
    <path class="st0" d="M334.13,144.16c-22.66,0-40.77,17.25-40.77,38.92,0,20.53,15.68,35.78,36.92,35.78,22.95,0,41.06-17.11,41.06-38.77,0-20.53-15.97-35.92-37.21-35.92ZM331.28,196.9c-7.7,0-12.83-5.56-12.83-14.11,0-9.55,6.27-16.68,14.68-16.68,7.84,0,13.12,5.84,13.12,14.54,0,9.41-6.27,16.25-14.97,16.25Z"/>
    <path class="st0" d="M451.46,142.89c-22.38,0-40.2,17.39-40.2,39.49,0,20.95,15.4,35.21,37.78,35.21,11.83,0,20.95-2.85,29.08-9.12l-7.84-16.54c-6.56,3.71-12.69,5.42-19.1,5.42-8.13,0-13.26-2.85-15.39-8.7h45.05c1.85-4.42,2.85-9.41,2.85-14.54,0-18.25-13.4-31.22-32.22-31.22ZM435.64,172.97c2.14-6.84,7.27-11.12,13.83-11.12s11.12,4.42,11.12,11.12h-24.95Z"/>
    <path class="st0" d="M399.32,217.07h-24.06c.07-.46,7.14-64.61,8.64-75.55l-29.2-.02,3.27-19.84h24.43c5.76.31,15.98-1.18,21.47,6.76,3.57,5.18,4.16,9.02,2.72,19.23-2.31,16.43-7.21,68.94-7.28,69.41ZM379.61,145.82h0Z"/>
    <path class="st0" d="M71.09,144.2c-22.66,0-40.77,17.25-40.77,38.92,0,20.53,15.68,35.78,36.92,35.78,22.95,0,41.06-17.11,41.06-38.77,0-20.53-15.97-35.92-37.21-35.92ZM84.46,191.8c-5.2,7.23-14.42,9.34-22.35,5.14-.52.34-1,.75-1.53,1.07-2.27,1.37-5.34,2.05-7.95,1.56-.57-.11-1.7-.27-1.84-.93-.1-.47.09-.7.4-1.01.32-.32.73-.63,1.05-.96,3.95-4,3.43-5.57,2.2-6.92-.73-.8-2.02-2.77-2.46-5.8-1.57-10.81,6.5-20.33,17.36-20.71l.79-.02c14.4.3,22.85,16.72,14.32,28.58Z"/>
    <g id="YyFA8I.tif">
      <g>
        <path class="st0" d="M453.3,131.9c.02.71.06,1.48.1,2.3,1.48-.06,2.97-.13,4.47.1.25.04.5.09.75.13,0-14.28-.55-28.7-.77-43-.22-14.05.37-28.69-.34-42.66-.11-2.12.09-7.18-3.5-6.23-2.42.64-2.03,6.88-2.08,9.07-.11,4.66.48,9.35.16,14.01-.23.41-1.22.43-1.65.37-4.14-.55-8.98-2.11-13.26-2.71-2.29-.32-4.26-.79-4.41,2.02-.18,3.57,1.62,9.74.62,12.97-.14.45-.19,1.14-.73,1.26l-20.45-1.72-1.55-13.84c.06-1.82.57-2.01,2.21-2.18,4.05-.44,10.33.73,14.62.83.68.02,4.54-.03,4.73-.28.24-.71.32-1.54.3-2.28-.06-2.93-.59-8.24-1.06-11.17-.14-.91-.33-2.89-1.16-3.27l-20.98-.6c-.5.42-.64.99-.69,1.61-.17,1.93.98,6.36,1.2,8.59.19,1.95.4,4.22.26,6.12-.68.87-19.92.22-22.46,0-.1-2.47-.58-15.92-1.97-16.92l-17.04-3.43c-1.14-.01-2.53-.52-3.09.71l1.34,14.39c.36,1.3,1.42,1.88,2.66,2.29,5.98,1.98,12.69,1.9,18.71,3.62l-.38,2.85,1.29,13.33,3.21.72,19.46-.82c.42,1.94,2.12,15.87,1.42,16.34-7.2-.48-14.42-.1-21.58.49-.65.5-.62,1.19-.7,1.9-.23,2.05,1.05,7.67,1.42,10.06.09.58-.13,2.23-.02,2.37.24.3,2.96,1.17,3.58,1.24,1.55.19,5.19-.35,6.95-.32,2.61.05,9.99.74,11.99.06.71-.24.36-.34.38-.78.03-.97.03-2.2-.02-3.16-.12-2.22-2.18-10.57-.5-11.76l13.04.92c1.48.42,6.96.75,7.48,2.1.29.77.22,5.71.35,7.08.11,1.14.75,8.02,1,8.36.83,1.14,6.87,3.1,8.6,3.98,1.64.83,5.05,2.69,6.51,3.66,2.52,1.67,1.48,8.41,1.56,11.26ZM451.98,101.38l-16.97-4.95-.78-16.81c4.93,1.39,10.93,1.96,15.72,3.43.76.23,2.32.77,2.65,1.47.17.36-.31,6.59-.3,7.85.02,1.74,1.03,8.1-.32,9Z"/>
        <path class="st0" d="M587.62,117.72c-1.06-.57-2.09-1.63-3.28-2.29-3.27-1.81-3.87-2.62-6.79-.18-2.69,2.24-5.72,5.68-8.35,8.16-.65.62-.94,2.09-1.98,1.67-.52-.21-2.22-1.46-2.8-1.9-3.63-2.72-7.97-6.34-11.43-9.31-.84-.72-1.99-1.71-2.52-2.65.06-1.27,9.27-8.53,10.73-10.48.36-.48.73-.9.59-1.55l-16.48-12.71c-.7-.17-2.27.95-2.87,1.47-2.13,1.82-6.76,6.32-8.55,8.41-.4.47-1.02,1.12-1.04,1.74,0,.33,2.88,2.75,3.44,3.18,3.35,2.62,8.93,5.65,11.75,8.53,2.59,2.64-2.13,4.84-4.1,6.76-.55.54-.83,1.29-1.38,1.82-1.45,1.38-3.18,2.62-4.54,4.12l-16.81-11.52c-1.57-2.16,10.16-10.3,10.22-12.86.03-1.53-4.72-3.04-5.82-3.68-2.09-1.2-3.99-2.65-6.18-3.81-1.85-.98-6.1-1.43-4.24-4.24l13.06-15.21c.76-2.03-.82-3.98-3.05-3.27-1.59.51-4.95,5.23-6.29,6.72-9.57,10.6-19.16,21.35-28.55,31.96-8.32,9.41-16.72,20.2-25.39,29.43.21.08.44.14.65.22,1.29.5,2.49,1.12,3.62,1.83,1.45-1.6,2.87-3.12,4.11-4.42,1.83-1.91,3.16-3.71,6.2-3.22,1.99.32,5.57.92,7.44,1.37,2.38.57,6.89,2.9,9.21,2.35.22-.05,2.93-2.45,3.44-2.92,2.72-2.49,5.25-5.37,7.74-8.08,1.66-.93,7.53,3.79,9.04,4.74,2.99,1.89,6.04,3.67,8.94,5.73.38.48-.98,2.22-1.34,2.62-1.21,1.37-9.71,8.16-9.5,9.18,4.29,3.82,8.73,7.54,13.39,10.96.48.35.69,1.08,1.14,1.37.52.35,3.15,1.39,3.54,1.3.16-.03,1.13-1.45,1.54-1.83,1.86-1.71,6.52-5.09,7.7-6.83.43-.63.82-1.06.71-1.9-.14-1.04-14.11-12.58-16.22-13.92,3.35-4.32,7.68-8.07,11.83-11.63l14.37,12.84,2.95,1.47c3.62-4.07,8.17-7.5,11.32-11.83l18.01,9.58,2.25-.71c3.29-3.49,6.91-6.89,10.56-10.16.71-1.94-8.34-5.55-9.99-6.44ZM519.23,111.55l-10.91,10.93-17.81-7.41c-.06-1.93,1.87-2.89,2.9-4.14,2.12-2.57,4.23-5.72,6.87-7.87,2.33-1.89,3.51-1.06,6.17.08,4.38,1.87,9.09,4.95,13.5,6.95l-.72,1.46Z"/>
        <path class="st0" d="M368.19,94.71c.06-4.51-.4-9.15-.12-13.65.07-1.13.02-3.91.88-4.52l20.01,2.6,1.89,14.6-.44,1.18c-7.4.19-14.87,1.22-22.22-.22Z"/>
        <path class="st0" d="M555.3,138.11l16.75,10.58c.17.59-.25,1.17-.52,1.66-1.25,2.28-4.65,5.43-6.43,7.47-1.01,1.16-3.04,4.8-4.73,4.98-2.29.24-14.37-11.5-16.86-13.48-.17-.5.15-.82.44-1.17.94-1.15,3.62-3.02,4.79-4.17s5.12-6.01,6.56-5.87Z"/>
      </g>
    </g>
    <path class="st0" d="M142.36,74.51l-34.5,58.9h-6.33l-11.72-27.5-17.62,27.5h-6.33l-22.1-58.9h20.94l9.03,26.81,15.71-26.6h6.33l11.41,25.79,14.24-26h20.94Z"/>
    <path class="st0" d="M200.91,96.98l-8.26,36.23h-19.79l7.65-33.35c1.09-5.18-1.77-8.51-6.61-8.51s-8.99,3.34-10.08,8.51l-7.65,33.35h-19.79l18.96-87.08h19.79l-6.9,32.79c4.5-3.34,10.11-5.41,16.09-5.41,12.77,0,19.55,9.32,16.57,23.47Z"/>
    <path class="st0" d="M205.15,103.66c3.86-16.91,20.56-30.14,38.17-30.14s28.36,13.35,24.53,30.14-20.68,30.14-38.28,30.14-28.27-13.23-24.42-30.14ZM247.6,103.66c1.57-6.9-1.99-11.96-8.32-11.96s-12.26,4.83-13.89,11.96c-1.63,7.13,1.76,11.96,8.43,11.96s12.2-5.06,13.77-11.96Z"/>
    <path class="st0" d="M280.86,72.69h8.84c2.72,0,4.53,2.8,3.41,5.28l-9.31,15.32c-.6,1.34-1.94,2.2-3.41,2.2h-3.02c-2.4,0-4.18-2.23-3.65-4.57l3.5-15.32c.39-1.7,1.9-2.91,3.65-2.91Z"/>
    <path class="st0" d="M283.01,122.76l11.88-11.73c3.67,4.6,8.61,7.13,14.25,7.13,2.76,0,5.19-.58,5.64-2.53.31-1.38-.7-1.96-2.68-2.88l-5.84-2.65c-9.5-4.26-14.64-8.97-12.46-18.52,2.62-11.5,13.21-18.06,26.44-18.06,8.4,0,15.42,2.53,19.71,8.4l-12.07,12.08c-3.06-3.22-6.81-4.95-11.07-4.95-2.53,0-4.16.58-4.53,2.19-.29,1.27.79,2.07,3.2,3.11l5.23,2.3c9.29,4.14,14.88,8.4,12.68,18.06-2.76,12.08-14.48,19.1-28.17,19.1-10.24,0-18.44-3.91-22.22-11.04Z"/>
  </g>
</svg>