<?xml version="1.0" encoding="UTF-8"?>
<svg id="_x31_080_x__x_1080_px_Logo_Set_1" xmlns="http://www.w3.org/2000/svg" xmlns:xlink="http://www.w3.org/1999/xlink" version="1.1" viewBox="0 0 404.33 420.14">
  <!-- Generator: Adobe Illustrator 30.0.0, SVG Export Plug-In . SVG Version: 2.1.1 Build 123)  -->
  <defs>
    <style>
      .st0 {
        fill: url(#linear-gradient1);
      }

      .st1 {
        fill: url(#linear-gradient);
      }

      .st2 {
        font-family: Turnpike, Turnpike;
        font-size: 32.47px;
      }
    </style>
    <linearGradient id="linear-gradient" x1="23.81" y1="220.88" x2="33.7" y2="210.99" gradientUnits="userSpaceOnUse">
      <stop offset="0" stop-color="#ff006e"/>
      <stop offset=".13" stop-color="#fe1358"/>
      <stop offset=".39" stop-color="#fd3532"/>
      <stop offset=".63" stop-color="#fd4e16"/>
      <stop offset=".84" stop-color="#fd5d05"/>
      <stop offset="1" stop-color="#fd6300"/>
    </linearGradient>
    <linearGradient id="linear-gradient1" x1="365.28" y1="224.21" x2="375.16" y2="214.32" xlink:href="#linear-gradient"/>
    <path id="path" d="M356.52,201.37c0,85.67-69.45,155.12-155.12,155.12S46.29,287.04,46.29,201.37,115.73,46.25,201.4,46.25s155.12,69.45,155.12,155.12Z"/>
    <path id="path1" d="M200.32,21.06c104.18,0,188.63,84.45,188.63,188.63,0,104.18-84.45,188.63-188.63,188.63-104.18,0-188.63-84.45-188.63-188.63,0-104.18,84.45-188.63,188.63-188.63Z"/>
  </defs>
  <g id="Text3" data-name="Text">
    <circle id="Ellipse" class="st1" cx="28.75" cy="215.93" r="6.99"/>
    <circle id="Ellipse1" data-name="Ellipse" class="st0" cx="370.22" cy="219.27" r="6.99"/>
    <text>
      <textPath startOffset="997.75%" xlink:href="#path"><tspan class="st2"><tspan x="0" y="0">WHO’S ON POLE</tspan></tspan>
      </textPath></text>
    <text>
      <textPath xlink:href="#path1"><tspan class="st2"><tspan x="0" y="0">WHO’S ON POLE</tspan></tspan>
      </textPath></text>
    <path d="M179.3,182.84l1.15-2.32c-7.05-3.2-14.56-8.11-21.55-11.1-4.24-1.82-6.12-3.14-9.84-.12-4.23,3.42-7.59,8.44-10.97,12.55-1.64,2-4.72,3.53-4.62,6.61l28.42,11.82,17.41-17.44Z"/>
    <path d="M206.21,97.69l-4.65.1c-62.13,2.18-108.67,55.42-102.24,116.87,11.51-12.94,22.76-27.09,33.9-39.7,14.97-16.94,30.28-34.09,45.55-51,2.14-2.37,7.5-9.91,10.04-10.72,3.56-1.14,6.09,1.97,4.87,5.21l-20.84,24.28c-2.98,4.49,3.81,5.21,6.76,6.77,3.5,1.85,6.53,4.18,9.86,6.09,1.76,1.01,9.35,3.42,9.29,5.86-.09,4.08-18.81,17.07-16.3,20.51l26.82,18.38c2.17-2.39,4.92-4.37,7.24-6.57.89-.85,1.33-2.05,2.21-2.91,3.13-3.07,10.66-6.58,6.54-10.79-4.51-4.6-13.41-9.44-18.75-13.62-.89-.7-5.51-4.55-5.49-5.08.03-.99,1.01-2.03,1.65-2.78,2.86-3.33,10.24-10.52,13.64-13.42.96-.82,3.47-2.62,4.58-2.34l26.3,20.28c.23,1.04-.37,1.71-.94,2.47-2.33,3.11-17.02,14.69-17.12,16.72.85,1.51,2.68,3.08,4.02,4.24,5.51,4.75,12.45,10.52,18.24,14.86.93.7,3.65,2.69,4.47,3.03,1.65.67,2.12-1.69,3.15-2.67,4.19-3.97,9.02-9.45,13.32-13.03,4.66-3.88,5.62-2.6,10.84.29,1.9,1.05,3.55,2.75,5.24,3.66,2.64,1.42,17.07,7.18,15.94,10.27-5.81,5.22-11.59,10.65-16.84,16.22l-3.6,1.14-28.74-15.28c-5.03,6.91-12.29,12.38-18.07,18.87l-4.71-2.35-22.94-20.49c-6.63,5.67-13.53,11.67-18.87,18.55,3.37,2.13,25.66,20.54,25.88,22.21.18,1.34-.44,2.02-1.13,3.03-1.89,2.77-9.31,8.16-12.29,10.89-.67.61-2.21,2.86-2.46,2.92-.62.14-4.82-1.53-5.65-2.08-.71-.47-1.05-1.63-1.82-2.19-7.43-5.46-14.52-11.39-21.36-17.49-.32-1.62,13.23-12.46,15.16-14.64.57-.64,2.73-3.41,2.13-4.18-4.63-3.29-9.49-6.12-14.26-9.14-2.4-1.51-11.76-9.04-14.42-7.56-3.98,4.33-8.01,8.93-12.34,12.9-.82.75-5.14,4.57-5.49,4.66-3.71.88-10.89-2.84-14.69-3.75-2.99-.71-8.7-1.67-11.87-2.18-4.86-.78-6.98,2.09-9.9,5.14-1.63,1.7-3.46,3.67-5.35,5.73,3.12,15.03,9.67,24.91,13.55,29.18,7.21,7.93,10.27,17.11-12.87,40.55-1.89,1.91-4.27,3.75-6.17,5.63-1.82,1.8-2.95,3.15-2.37,5.93.81,3.88,7.43,4.83,10.77,5.45,15.28,2.87,33.28-1.1,46.57-9.14,3.14-1.9,5.92-4.26,8.97-6.26,46.43,24.58,100.47,12.23,130.91-30.11,49.97-69.5.45-165.67-83.89-167.42ZM262.75,244.77c-1.99,3.64-7.42,8.67-10.26,11.91-1.62,1.85-4.86,7.67-7.54,7.95-3.66.39-22.93-18.35-26.9-21.51-.27-.8.24-1.31.7-1.87,1.5-1.84,5.78-4.82,7.64-6.65,1.89-1.85,8.18-9.59,10.46-9.36l26.73,16.88c.27.94-.4,1.86-.83,2.65Z"/>
  </g>
</svg>