<?xml version="1.0" encoding="UTF-8"?>
<svg id="_x31_080_x__x_1080_px_Logo_Set_1" xmlns="http://www.w3.org/2000/svg" version="1.1" viewBox="0 0 404.33 420.14">
  <!-- Generator: Adobe Illustrator 30.0.0, SVG Export Plug-In . SVG Version: 2.1.1 Build 123)  -->
  <defs>
    <style>
      .st0 {
        fill: #fff;
      }
    </style>
  </defs>
  <g id="Text3" data-name="Text">
    <path class="st0" d="M161.89,200.28l-28.42-11.82c-.1-3.08,2.98-4.61,4.62-6.61,3.38-4.11,6.74-9.13,10.97-12.55,3.72-3.02,5.6-1.69,9.84.12,6.98,2.99,14.5,7.9,21.55,11.1l-1.15,2.32-17.41,17.44ZM290.09,265.11c-30.44,42.34-84.48,54.69-130.91,30.11-3.05,2.01-5.84,4.37-8.97,6.26-13.29,8.03-31.29,12-46.57,9.14-3.34-.63-9.96-1.57-10.77-5.45-.58-2.78.55-4.13,2.37-5.93,1.9-1.88,4.29-3.72,6.17-5.63,23.13-23.44,20.08-32.62,12.87-40.55-3.88-4.26-10.43-14.15-13.55-29.18,1.89-2.07,3.72-4.03,5.35-5.73,2.91-3.04,5.04-5.92,9.9-5.14,3.17.51,8.88,1.47,11.87,2.18,3.8.9,10.99,4.63,14.69,3.75.35-.08,4.67-3.91,5.49-4.66,4.34-3.97,8.37-8.57,12.34-12.9,2.65-1.49,12.02,6.04,14.42,7.56,4.78,3.02,9.64,5.85,14.26,9.14.6.77-1.56,3.54-2.13,4.18-1.93,2.18-15.49,13.02-15.16,14.64,6.84,6.09,13.93,12.03,21.36,17.49.76.56,1.11,1.72,1.82,2.19.83.55,5.03,2.22,5.65,2.08.25-.06,1.8-2.31,2.46-2.92,2.98-2.73,10.4-8.13,12.29-10.89.69-1.01,1.31-1.69,1.13-3.03-.22-1.67-22.51-20.08-25.88-22.21,5.34-6.89,12.25-12.88,18.87-18.55l22.94,20.49,4.71,2.35c5.78-6.49,13.04-11.97,18.07-18.87l28.74,15.28,3.6-1.14c5.25-5.56,11.03-10.99,16.84-16.22,1.13-3.1-13.3-8.86-15.94-10.27-1.69-.91-3.34-2.6-5.24-3.66-5.22-2.9-6.18-4.17-10.84-.29-4.3,3.58-9.13,9.06-13.32,13.03-1.04.98-1.51,3.34-3.15,2.67-.82-.33-3.54-2.33-4.47-3.03-5.79-4.34-12.72-10.11-18.24-14.86-1.34-1.15-3.17-2.72-4.02-4.24.1-2.03,14.79-13.61,17.12-16.72.57-.76,1.17-1.43.94-2.47l-26.3-20.28c-1.11-.28-3.62,1.52-4.58,2.34-3.4,2.9-10.78,10.09-13.64,13.42-.65.75-1.63,1.79-1.65,2.78-.01.53,4.6,4.38,5.49,5.08,5.34,4.18,14.24,9.02,18.75,13.62,4.13,4.21-3.4,7.72-6.54,10.79-.88.86-1.32,2.06-2.21,2.91-2.32,2.2-5.08,4.18-7.24,6.57l-26.82-18.38c-2.5-3.44,16.21-16.43,16.3-20.51.05-2.45-7.53-4.86-9.29-5.86-3.33-1.91-6.37-4.23-9.86-6.09-2.95-1.56-9.74-2.28-6.76-6.77l20.84-24.28c1.22-3.25-1.31-6.35-4.87-5.21-2.53.81-7.89,8.35-10.04,10.72-15.27,16.91-30.58,34.06-45.55,51-11.14,12.61-22.39,26.76-33.9,39.7-6.43-61.45,40.11-114.69,102.24-116.87l4.65-.1c84.34,1.75,133.85,97.92,83.89,167.42ZM263.58,242.12l-26.73-16.88c-2.29-.23-8.58,7.51-10.46,9.36-1.87,1.83-6.14,4.81-7.64,6.65-.46.57-.97,1.07-.7,1.87,3.98,3.17,23.25,21.9,26.9,21.51,2.68-.28,5.92-6.1,7.54-7.95,2.84-3.25,8.27-8.27,10.26-11.91.43-.79,1.1-1.71.83-2.65Z"/>
  </g>
</svg>