<?xml version="1.0" encoding="UTF-8"?>
<svg id="Layer_1" data-name="Layer 1" xmlns="http://www.w3.org/2000/svg" viewBox="0 0 30 400">
  <defs>
    <style>
      .cls-1 {
        fill: none;
        stroke: #08fcea;
        stroke-miterlimit: 10;
        stroke-width: .75px;
      }
    </style>
  </defs>
  <polygon class="cls-1" points="7.48 375.55 1.71 375.55 1.71 398.42 7.48 398.42 7.48 390.56 28.05 390.56 28.05 383.41 7.48 383.41 7.48 375.55"/>
  <polygon class="cls-1" points="22.29 365.72 17.55 365.72 17.55 354.87 11.93 354.87 11.93 365.72 7.48 365.72 7.48 353.88 1.71 353.88 1.71 372.86 28.05 372.86 28.05 353.95 22.29 353.95 22.29 365.72"/>
  <path class="cls-1" d="M1.71,343.02l26.34,8.54v-7.99l-5.06-1.44v-8.11l5.06-1.51v-8.1l-26.34,8.86v9.76ZM17.66,335.62v4.99c-2.16-.62-4.4-1.17-6.73-1.67-1.15-.24-2.29-.48-3.44-.73,1.15-.27,2.28-.52,3.44-.79,2.32-.56,4.56-1.17,6.73-1.81Z"/>
  <path class="cls-1" d="M1.71,301.98l8.24,2.33c.71.2,1.64.43,2.81.68s2.42.51,3.76.76c.99.19,1.94.36,2.87.52-.93.16-1.88.34-2.87.52-1.34.25-2.59.51-3.76.77s-2.1.49-2.81.69l-8.24,2.37v11.28h26.34v-7.21h-10.18c-.6,0-1.4.02-2.39.04-1,.03-2.09.06-3.28.1-1.19.04-2.39.07-3.59.1-.27,0-.51,0-.77.01.31-.07.62-.14.94-.21,1.21-.28,2.39-.56,3.54-.86,1.15-.29,2.2-.57,3.16-.84.96-.27,1.76-.49,2.39-.68l10.18-3.11v-5.94l-10.18-3.06c-.64-.19-1.43-.41-2.39-.67-.96-.26-2.02-.53-3.16-.81s-2.33-.56-3.54-.83c-.47-.1-.92-.2-1.37-.3.4,0,.79.01,1.21.02,1.2.03,2.4.06,3.59.1,1.19.04,2.28.07,3.28.1,1,.03,1.79.04,2.39.04h10.18v-7.21H1.71v11.29Z"/>
  <path class="cls-1" d="M5.35,285.93c1.26.91,2.72,1.36,4.39,1.36,2.06,0,3.69-.67,4.89-2.01,1.2-1.34,2.04-3.17,2.54-5.49l.57-2.65c.2-.98.42-1.76.67-2.33.25-.58.52-.99.82-1.25s.65-.38,1.05-.38c.44,0,.82.13,1.16.4.33.27.6.66.79,1.18s.28,1.16.28,1.93c0,.92-.14,1.71-.42,2.36-.28.65-.7,1.16-1.25,1.52s-1.23.56-2.03.61v6.79c2.2-.01,4.01-.49,5.43-1.43,1.41-.94,2.46-2.27,3.14-3.97.68-1.7,1.02-3.7,1.02-5.98s-.31-4.14-.94-5.73c-.62-1.59-1.54-2.81-2.75-3.67s-2.68-1.28-4.41-1.28c-1,0-1.93.16-2.78.47-.85.31-1.61.8-2.29,1.47-.68.67-1.27,1.52-1.78,2.56s-.91,2.29-1.22,3.74l-.46,2.16c-.18.82-.38,1.5-.61,2.02-.23.52-.5.91-.81,1.15-.31.24-.67.36-1.09.36-.39,0-.74-.11-1.04-.34-.31-.22-.54-.57-.72-1.04s-.26-1.07-.26-1.8c0-1.15.24-2.02.72-2.59.48-.57,1.15-.89,2.01-.95v-6.86c-1.72.01-3.23.44-4.52,1.28-1.29.84-2.29,2.04-3,3.59-.71,1.55-1.07,3.39-1.07,5.52s.35,3.93,1.05,5.52c.7,1.6,1.68,2.85,2.93,3.76Z"/>
</svg>