<?xml version="1.0" encoding="UTF-8"?>
<svg id="Layer_1" data-name="Layer 1" xmlns="http://www.w3.org/2000/svg" viewBox="0 0 30 400">
  <defs>
    <style>
      .cls-1 {
        fill: none;
        stroke: #08fcea;
        stroke-miterlimit: 10;
        stroke-width: .75px;
      }
    </style>
  </defs>
  <polygon class="cls-1" points="7.77 398.08 7.77 390.41 27.85 390.41 27.85 383.44 7.77 383.44 7.77 375.76 2.15 375.76 2.15 398.08 7.77 398.08"/>
  <path class="cls-1" d="M15.53,353.73c-1.27-.82-2.82-1.22-4.66-1.22s-3.38.4-4.68,1.2-2.31,1.91-3,3.35-1.04,3.1-1.04,5.01v11.07h25.7v-6.97h-8.49v-2.42l8.49-4.52v-7.59l-9.61,5.26c-.64-1.33-1.52-2.41-2.7-3.17ZM7.74,366.17v-2.45c0-.83.11-1.54.33-2.12s.56-1.04,1.02-1.35,1.06-.47,1.79-.47,1.33.16,1.78.47.78.76.98,1.35.31,1.29.31,2.12v2.45h-6.21Z"/>
  <path class="cls-1" d="M2.15,342.07l25.7,8.33v-7.8l-4.93-1.41v-7.91l4.93-1.48v-7.9l-25.7,8.64v9.52ZM17.71,334.84v4.88c-2.11-.6-4.29-1.15-6.56-1.63-1.13-.24-2.24-.47-3.35-.71,1.12-.26,2.23-.5,3.35-.78,2.27-.55,4.45-1.14,6.56-1.76Z"/>
  <path class="cls-1" d="M19.97,307.1c.45.24.83.54,1.16.92s.57.82.74,1.33.26,1.08.26,1.73c0,1.14-.26,2.11-.79,2.91s-1.32,1.41-2.38,1.84-2.37.64-3.93.64-2.77-.21-3.84-.62-1.88-1.03-2.45-1.84-.85-1.8-.85-2.96c0-.64.09-1.22.26-1.73s.42-.95.74-1.32.71-.66,1.16-.89.95-.37,1.5-.44v-7.07c-1.55.16-2.93.56-4.14,1.19s-2.23,1.46-3.05,2.48-1.46,2.21-1.89,3.56-.65,2.83-.65,4.42c0,2.3.5,4.39,1.51,6.26s2.49,3.36,4.46,4.47,4.38,1.66,7.25,1.66,5.24-.54,7.2-1.63,3.45-2.56,4.46-4.43,1.52-3.98,1.52-6.32c0-1.89-.3-3.54-.89-4.96s-1.37-2.62-2.34-3.59-2.02-1.72-3.16-2.24-2.25-.83-3.35-.91v7.07c.55.08,1.05.24,1.5.47Z"/>
  <path class="cls-1" d="M2.15,272.88v8.26l6.61,5.11c1.18.91,2.23,1.66,3.12,2.27.8.54,1.58.99,2.36,1.41l-6.57-.12H2.15v6.97h25.7v-6.97h-6.42l-3.63-3.17,10.05-6.03v-8.21l-14.64,9.47-11.06-8.99Z"/>
  <path class="cls-1" d="M17.55,249.88c-.83.3-1.57.78-2.23,1.43s-1.24,1.48-1.73,2.5-.89,2.23-1.19,3.65l-.45,2.1c-.17.81-.37,1.46-.6,1.98s-.49.89-.79,1.12-.66.35-1.06.35c-.38,0-.72-.11-1.02-.33s-.53-.56-.7-1.02-.25-1.05-.25-1.76c0-1.13.23-1.97.7-2.53s1.12-.87,1.96-.92v-6.69c-1.68.01-3.15.43-4.41,1.25s-2.24,1.99-2.93,3.5-1.04,3.31-1.04,5.39.34,3.83,1.03,5.39,1.64,2.78,2.86,3.67,2.65,1.33,4.29,1.33c2.01,0,3.6-.65,4.77-1.96s1.99-3.09,2.48-5.36l.55-2.59c.2-.95.41-1.71.66-2.28s.51-.97.8-1.22.64-.37,1.03-.37c.43,0,.8.13,1.13.39s.58.64.77,1.15.28,1.13.28,1.88c0,.9-.14,1.66-.41,2.3s-.68,1.13-1.22,1.48-1.2.55-1.98.6v6.62c2.15-.01,3.92-.48,5.3-1.4s2.4-2.21,3.06-3.87.99-3.61.99-5.84-.3-4.04-.91-5.59-1.5-2.75-2.68-3.58-2.61-1.25-4.3-1.25c-.98,0-1.88.15-2.71.46Z"/>
</svg>